<?xml version="1.0" encoding="UTF-8" standalone="no"?>
<svg
   width="583.40289"
   height="70.158371"
   version="1.1"
   id="svg2"
   sodipodi:docname="defra-logo-wide.svg"
   inkscape:version="1.4.4 (dcaf3e7, 2026-05-05)"
   xml:space="preserve"
   xmlns:inkscape="http://www.inkscape.org/namespaces/inkscape"
   xmlns:sodipodi="http://sodipodi.sourceforge.net/DTD/sodipodi-0.dtd"
   xmlns="http://www.w3.org/2000/svg"
   xmlns:svg="http://www.w3.org/2000/svg"><defs
     id="defs2" /><sodipodi:namedview
     id="namedview2"
     pagecolor="#ffffff"
     bordercolor="#000000"
     borderopacity="0.25"
     inkscape:showpageshadow="2"
     inkscape:pageopacity="0.0"
     inkscape:pagecheckerboard="0"
     inkscape:deskcolor="#d1d1d1"
     inkscape:zoom="1.1570518"
     inkscape:cx="254.09407"
     inkscape:cy="47.102472"
     inkscape:window-width="1449"
     inkscape:window-height="820"
     inkscape:window-x="63"
     inkscape:window-y="33"
     inkscape:window-maximized="0"
     inkscape:current-layer="svg2" /><path
     fill="#00a33b"
     d="M 0,70.08878 H 4 V 0 H 0 Z m 0,0"
     id="path1"
     inkscape:label="path 1"
     style="stroke-width:0.542563" /><path
     id="path5"
     inkscape:label="path 2"
     d="m 88.72,63.68 c 0,0 -0.377,2.139 -0.354,2.316 L 87.728,65.88 c -0.016,0.016 0.392,-1.868 0.492,-2.276 -0.23,-0.054 -0.5,-0.03 -0.746,0.07 l -0.008,-0.009 0.254,-0.538 1.745,0.315 0.123,0.592 c -0.146,-0.146 -0.623,-0.307 -0.869,-0.353 m -1.522,0.115 c -0.07,0.5 -0.293,1.5 -0.208,1.969 l -0.646,-0.093 c 0.285,-0.73 0.485,-1.953 0.438,-2.737 l 0.639,0.1 c -0.1,0.215 -0.177,0.469 -0.223,0.761 m -1.723,1.63 c -1.646,0.316 -1.646,-2.476 -0.323,-2.86 1.661,-0.346 1.669,2.484 0.323,2.86 m -1.423,-2.191 c -0.076,0.315 -0.307,0.53 -0.692,0.646 0.162,0.546 0.262,0.73 0.546,1.322 v 0.016 l -0.438,-0.07 c -0.092,-0.053 -0.638,-0.822 -0.807,-1.237 -0.093,0.346 -0.193,0.776 -0.154,1.092 l -0.738,-0.116 c 0.138,-0.215 0.715,-2.484 0.692,-2.722 0.646,0.077 1.791,0.192 1.591,1.069 m -3.19,1.276 c -0.393,0.139 -0.94,-0.015 -1.347,-0.092 l 0.539,-2.776 c 1.807,-0.123 2.553,2.207 0.807,2.868 M 78.3,64.273 c -0.2,-0.038 -1.285,-2.253 -1.285,-2.253 0,0 -0.261,1.722 -0.33,1.838 l -0.493,-0.07 0.562,-2.691 0.546,0.07 c 0.008,0.069 0.86,1.891 0.86,1.891 0,0 0.293,-1.476 0.316,-1.607 l 0.415,0.115 z m -2.262,-1.738 c -0.584,1.992 -2.883,0.9 -2.199,-0.877 0.577,-1.93 2.876,-0.907 2.2,0.877 m -2.4,-2.145 c -0.1,0.084 -0.446,2.514 -0.423,2.753 l -0.653,-0.131 c 0.123,-0.208 0.276,-1.9 0.276,-1.9 l -1.122,1.738 -0.654,-1.96 c 0,0 -0.27,1.407 -0.284,1.86 L 70.14,62.666 c 0.208,-0.339 0.608,-2.83 0.608,-2.83 l 0.661,0.123 c 0.023,0.13 0.523,1.83 0.523,1.83 0,0 0.877,-1.484 0.93,-1.561 l 0.777,0.146 z m 16.088,1.707 c -0.815,0 -1.584,-0.008 -1.961,-0.039 -4.284,-0.415 -8.513,-1.638 -12.781,-2.314 -1.23,-0.2 -2.238,-0.377 -3.107,-0.377 -1.815,-0.008 -3.045,0.784 -4.506,3.891 -0.623,1.184 1.46,2.307 1.922,2.36 -1.715,-1.46 -1.115,-1.899 0.239,-1.899 1.86,0 5.167,0.83 5.821,0.908 3.907,0.623 7.86,1.745 11.827,2.168 0.139,0.016 0.277,0.023 0.4,0.023 2.922,0 2.784,-3.19 4.791,-4.775 -0.354,0.03 -1.538,0.054 -2.645,0.054 m -14.52,-1.085 c -1.014,-0.277 -1.406,1.823 -0.553,2.177 1.038,0.276 1.408,-1.808 0.554,-2.177 m 7.798,1.546 -0.293,1.069 c 0.823,0.154 1.185,-0.938 0.293,-1.069 m 2.545,0.377 c -0.969,-0.239 -1.284,1.784 -0.477,2.115 0.992,0.23 1.292,-1.785 0.477,-2.115 m -4.983,-0.861 c -0.139,0.538 -0.354,1.56 -0.423,2.107 1.276,0.276 1.669,-1.861 0.423,-2.107 m -31.238,-1.577 0.485,2.469 -0.57,0.1 -0.5,-2.461 c -0.345,0.07 -0.545,0.07 -1.014,0.277 l -0.016,-0.554 2.446,-0.315 0.169,0.469 c -0.223,-0.085 -1,0.015 -1,0.015 m -1.79,2.893 -1.691,0.392 c 0.03,-0.261 -0.539,-2.638 -0.685,-2.853 l 1.784,-0.415 -0.138,0.607 c -0.246,-0.069 -0.539,-0.069 -0.87,0 l 0.208,0.862 0.985,-0.231 0.169,0.423 c -0.2,-0.03 -0.8,0.123 -1.069,0.169 l 0.215,0.907 c 0.493,-0.115 0.892,-0.276 1.208,-0.5 l 0.007,0.009 z m -4.921,0.877 c -1.238,0.03 -1.415,-1.738 -1.707,-2.607 l 0.6,-0.116 c 0.292,0.762 0.207,2.538 1.484,2.307 0.922,-0.415 0.176,-1.876 0.076,-2.584 l 0.593,-0.084 c 0.223,1.169 0.76,3.206 -1.046,3.083 m -1.738,0.27 -1.7,0.376 c 0.031,-0.261 -0.515,-2.637 -0.653,-2.853 l 1.784,-0.4 -0.146,0.6 C 39.92,62.19 39.627,62.19 39.296,62.251 l 0.2,0.87 0.993,-0.224 0.161,0.423 c -0.2,-0.03 -0.792,0.116 -1.069,0.162 l 0.208,0.907 c 0.484,-0.108 0.892,-0.27 1.207,-0.492 l 0.008,0.008 z m -3.184,0.692 c 0.039,-0.846 -0.238,-2.169 -0.623,-2.915 l 0.83,-0.177 c -0.038,0.839 0.24,2.161 0.624,2.915 z m -0.838,-0.516 c -0.354,0.839 -1.407,1.03 -2.23,1.177 0.038,-0.261 -0.462,-2.684 -0.615,-2.907 1.422,-0.607 3.46,-0.016 2.845,1.73 m 13.657,-5.375 c -6.49,0.008 -12.95,2.776 -19.44,2.776 -0.777,0 -1.553,-0.038 -2.33,-0.13 2.007,1.584 1.869,4.775 4.79,4.775 0.124,0 0.262,-0.008 0.4,-0.023 3.969,-0.423 7.921,-1.546 11.828,-2.16 0.677,-0.109 3.914,-0.893 5.806,-0.9 0.684,0 1.192,0.107 1.346,0.376 0.207,0.377 -1.085,1.461 -1.092,1.507 0,0.016 0,0.016 0.015,0.016 0.13,0 0.846,-0.407 1.377,-0.761 2.114,-1.523 -2.323,-5.475 -2.7,-5.475 M 35.79,63.312 c -0.261,-0.162 -0.584,-0.208 -0.969,-0.147 0.077,0.577 0.292,1.654 0.461,2.215 1.077,-0.154 1.4,-1.5 0.508,-2.068 m 25.57,-4.814 c 0.807,-0.723 1.368,-0.97 2.414,-1.223 -0.292,0.646 -0.57,1.269 -0.854,1.915 -0.523,-0.231 -1.038,-0.462 -1.56,-0.692 M 61.152,42.856 H 72.6 c 0.938,8.759 -4.191,11.689 -11.45,14.742 z m 16.918,-4.69 c -0.262,-0.562 -0.877,-3.738 -1.761,-3.046 4.052,7.56 1.345,17.51 -5.683,22.301 -2.069,1.246 -4.63,3.322 -7.067,1.938 1.576,-6.137 9.128,-3.545 10.766,-15.25 -0.2,-0.1 -0.277,-0.16 -0.462,-0.192 -0.22759,1.616661 -0.651034,3.199625 -1.261,4.714 0.661,-1.738 0.238,-7.19 0.361,-7.498 -0.069,-0.084 -0.138,-0.123 -0.361,-0.4 0.038,0.662 0,0.9 0.008,1.777 H 61.151 V 30.552 h 11.243 v 6.744 c -0.008,0.039 0.046,0.362 0.069,0.477 0.161,-0.246 0.17,-0.238 0.284,-0.315 V 30.206 H 49.155 l -0.024,6.106 h 0.354 v -5.76 H 60.797 V 42.51 H 49.885 c -0.03,0.03 0.008,-0.192 -0.03,-0.161 0,-0.031 -0.07,0.192 -0.07,0.161 h -0.308 c -0.007,-0.561 0.008,-0.9 0.008,-0.923 l -0.354,-0.008 c -0.253,0.892 0.5,8.398 1.73,9.713 -2.468,-2.392 -3.244,-6.63 -2.783,-9.82 0,0 -0.23,-0.177 -0.477,-0.408 -0.777,4.499 0.923,8.928 4.076,12.15 0.277,0.292 0.577,-0.023 0.915,-0.108 -0.07,-0.069 -0.215,-0.184 -0.315,-0.322 0.123,0.123 0.23,0.238 0.315,0.322 l -0.177,-0.484 c -2.468,-1.892 -2.876,-7.29 -2.93,-9.766 h 11.312 c 0,0 -0.007,14.988 -0.015,15.018 -2.407,-0.115 -4.03,-2.73 -6.36,-2.76 3.345,1.984 9.444,6.751 13.304,4.66 l 0.054,0.069 c -0.408,0.508 -1.83,1.469 -2.469,1.223 -1.053,-0.63 -2.676,0.523 -1.93,1.692 0.1,0.138 0.154,0.261 0.046,0.438 -4.175,-0.392 -7.92,-2.884 -11.435,-5.014 -0.038,0.038 -0.03,0.03 -0.061,0.07 1.345,1.814 6.16,4.075 6.16,4.075 l -0.008,2.707 c 0,0 0.307,0.2 0.515,0.338 v -2.93 c 1.261,0.439 3.814,1.238 3.814,1.238 l 0.008,1.83 0.492,-0.315 -0.03,-1.368 0.684,-0.185 c 0.429581,-0.119015 0.707319,-0.534559 0.653,-0.977 -0.224794,-0.103278 -0.34413,-0.352036 -0.284,-0.592 0.1,-0.53 0.746,-0.546 1.007,-0.223 0.523,0.231 1.038,-0.392 1.554,-0.546 0.722,-0.438 1.622,-0.83 1.953,-1.66 0.05389,-0.188377 0.181529,-0.347029 0.354,-0.44 1.468,-0.83 2.883,-1.752 4.075,-2.952 5.114,-4.314 6.89,-11.735 5.191,-18.087 M 67.341,45.71 c -0.053,-0.046 -0.192,0.008 -0.207,0.038 0.007,0.277 -0.285,0.193 -0.37,0.385 0.054,0.115 0.14,0.208 0.262,0.192 0.154,-0.016 0.146,0.177 0.285,0.193 0.669,-0.308 1.468,-0.231 2.038,-0.762 -0.216,-0.177 -0.27,-0.43 -0.316,-0.692 -0.384,0.03 -0.761,-0.023 -1.092,0.162 -0.038,0.176 0.085,0.269 0.17,0.423 -0.27,0.115 -0.516,0.176 -0.77,0.06 m -0.769,-8.704 c -0.5,-0.023 -0.892,-0.07 -0.746,0.53 0.024,0.147 0.077,0.585 0.162,0.685 0.038,0.054 0.03,0.115 -0.008,0.154 -0.207,0.115 -0.976,-0.2 -0.884,-0.462 0,-0.215 -0.215,-0.269 -0.285,-0.115 -0.03,0.07 -0.084,0.07 -0.161,-0.016 -0.146,-0.2 -0.346,0.07 -0.262,0.223 0.031,0.062 -0.007,0.13 -0.084,0.139 -0.208,0.084 -0.192,0.376 0.1,0.392 0.638,0.292 1.2,0.6 1.945,0.492 l -0.007,0.008 c 0.807,-0.07 0.392,-0.215 0.353,-0.784 -0.138,-0.608 0.9,-1.008 -0.123,-1.246 m 1.53,-1.146 0.278,0.57 c 0,0 0.584,0.26 0.669,0.338 0.33,0.238 0.276,0.915 -0.024,0.838 -0.492,-0.2 -0.784,-0.892 -1.115,-1.315 -0.092,-0.07 -0.33,-0.77 -0.484,-0.592 -2.007,0.453 0.37,0.961 0,1.715 -0.07,0.107 -0.292,0.63 -0.2,0.707 0.17,0.208 0.546,0.354 0.746,0.623 0.33,0.315 0.038,0.684 -0.37,0.384 -0.23,-0.169 -0.507,0.085 -0.268,0.316 0.015,0.046 -0.139,0.107 -0.17,0.13 -0.238,0.331 0.154,0.308 0.37,0.147 0.115,-0.062 0,0.284 0.192,0.23 0.369,-0.084 0.938,-0.269 1.038,-0.846 0.23,-0.523 -0.3,-0.438 -0.43,-0.9 -0.131,-0.184 -0.139,-0.884 0.146,-0.63 0.261,0.338 0.622,0.53 0.945,0.23 0.308,-0.284 0.031,-0.968 -0.123,-1.276 -0.292,-0.607 -0.63,-1.192 -0.607,-1.915 0.407,-0.484 0.884,0.377 1.169,-0.968 -0.954,0.06 -1.892,0.7 -1.415,1.768 0.284,0.608 0.223,0.562 -0.346,0.446 m -2.069,0.408 c 0.115,-0.116 0.461,-0.446 0.492,-0.515 0.039,-0.077 0.046,-0.085 0.292,-0.1 0.654,-0.093 0.992,-0.362 1.177,-1.077 0.092,-0.208 -0.023,-0.67 -0.161,-0.769 -0.054,-0.038 -0.077,-0.108 -0.039,-0.13 0.115,-0.016 0.377,-0.116 0.423,-0.262 -0.077,-0.139 -0.246,-0.03 -0.477,-0.108 -0.169,-0.077 -0.623,-0.223 -0.807,-0.115 -0.13,0.154 -0.908,0.169 -0.762,0.4 0.024,0.084 0.085,0.284 0.085,0.284 l 0.346,0.039 0.008,0.253 c 0,0 -0.254,0.054 -0.339,0.07 -0.207,0.307 0.5,0.33 0.693,0.092 0.123,-0.146 0.323,-0.17 0.315,0 -0.1,0.2 -0.438,0.3 -0.638,0.4 -0.293,0.054 -0.37,0.63 -0.6,0.823 -0.646,0.123 -0.877,0.107 -1.515,-0.416 -0.23,-0.269 -0.415,-0.069 -0.246,0.146 -0.108,0.039 -0.708,-0.3 -0.439,0.277 l 0.047,0.046 c -0.293,0.423 0.146,0.285 0.384,0.416 0.523,0.2 1.092,0.361 1.761,0.246 m -1.807,-2.6 c 0.192,0.124 0.338,0.693 0.454,0.77 0.223,0.292 0.676,1.06 1.13,0.907 v -0.016 c 0.13,-0.053 0.262,-0.446 0.27,-0.5 -0.04724,-0.05568 -0.101726,-0.104782 -0.162,-0.146 -0.43,-0.369 -0.685,-0.73 -0.692,-1.068 -0.016,-0.116 0.238,-0.262 0.223,-0.362 -0.008,-0.384 -0.331,0.046 -0.454,-0.016 -0.07,-0.115 -0.308,-0.43 -0.454,-0.276 -0.092,0.046 0.023,0.269 -0.054,0.33 -0.03,0.039 -0.053,0.046 -0.153,0.046 -0.339,-0.008 -0.385,0.208 -0.108,0.331 m -12.85,6.391 c -0.0507,-0.05518 -0.09685,-0.114372 -0.138,-0.177 -0.016,0.162 0.069,0.354 0.046,0.508 -0.023,0.13 -0.062,0.315 -0.1,0.438 0.207,0.2 0.33,0.216 0.553,0.139 -0.03,-0.316 -0.107,-0.685 -0.361,-0.908 m 4.99,0.8 c -0.038,0.2 0.147,0.284 0.178,0.446 -0.239,0.154 -0.493,0.161 -0.739,0.192 -0.13,-0.13 -0.184,-0.369 -0.415,-0.3 -0.13,0.031 -0.061,0.17 -0.161,0.223 -0.254,-0.023 -0.254,-0.023 -0.293,0.239 0.077,0.046 0.162,0.092 0.239,0.138 -0.192,0.908 2.284,-0.03 2.653,-0.3 -0.123,-0.207 -0.277,-0.346 -0.323,-0.584 -0.1,-0.392 -0.838,-0.07 -1.138,-0.054 m -4.291,-1.561 c -0.392,0.73 -0.277,1.376 0.192,1.984 0.877,0.03 1.238,-1.169 1.092,-1.892 0.092,-0.061 0.177,-0.123 0.27,-0.184 l -0.07,-0.262 -0.446,-0.023 c -0.315,-0.407 -0.508,-0.415 -0.884,-0.046 -0.262,-0.1 -0.262,-0.1 -0.431,0.13 0.05355,0.128153 0.152053,0.232344 0.277,0.293 m 7.19,1.076 c -0.262,0.123 -0.6,0.247 -0.8,-0.069 0.446,-0.177 1,-0.13 1.3,-0.554 0.23,-0.276 0.207,-0.83 -0.223,-0.976 -1.13,-0.315 -2.323,0.254 -3.46,0.354 -2.146,0.576 -0.616,-0.462 -2.315,-0.454 0.607,1.745 2.43,0.623 3.698,0.5 -0.092,0.2 -0.3,0.277 -0.384,0.461 0.454,-0.084 1.046,0.085 1.376,-0.261 0.17,-0.477 1.308,-0.531 1.039,0.115 -1.07,1.046 -4.422,0.07 -5.906,0.738 -0.223,0.677 -0.623,1.13 -1.27,1.315 -0.537,-0.33 -0.776,0.046 -1.306,-0.1 -0.0501,-0.05745 -0.104238,-0.111256 -0.162,-0.161 -0.01398,-0.0082 -0.02677,-0.01831 -0.038,-0.03 -0.01884,-0.01388 -0.03977,-0.02468 -0.062,-0.032 0,0.008 0.008,0.016 0.008,0.023 0.007,0.308 -0.07,0.616 -0.193,0.9 0.693,0.27 1.454,-0.061 2.138,-0.246 0.277,-0.085 0.439,-0.361 0.739,-0.361 0.722,0.053 1.138,-0.554 1.76,-0.723 0.77,-0.154 1.546,-0.27 2.33,-0.254 0.9,1.223 1.062,0.184 1.87,0.6 -0.024,0.115 -0.047,0.23 -0.07,0.361 0.077,0.03 0.146,0.046 0.208,0.07 -0.077,0.307 0.377,0.484 0.438,0.1 0.008,-0.047 -0.015,-0.108 0.054,-0.116 0.477,-0.261 -0.262,-1.53 -0.77,-1.2 m -7.628,-3.114 c -0.03,-0.315 -0.107,-0.684 -0.361,-0.907 -0.277,-0.293 -0.37,-0.693 -0.085,-1 -0.138,-0.139 -0.33,-0.023 -0.469,-0.223 -0.184,-0.2 -0.292,0.038 -0.33,0.254 -0.508,0.069 -0.216,0.238 -0.1,0.507 0.161,0.462 0.761,1.584 1.345,1.369 m 4.637,-0.108 c -0.038,0.2 0.147,0.285 0.177,0.446 -0.238,0.154 -0.492,0.162 -0.738,0.193 -0.138,-0.131 -0.192,-0.37 -0.415,-0.3 -0.13,0.03 -0.062,0.169 -0.162,0.23 -0.253,-0.022 -0.253,-0.022 -0.292,0.231 l 0.239,0.146 c -0.193,0.908 2.283,-0.038 2.653,-0.307 -0.123,-0.208 -0.277,-0.346 -0.323,-0.585 -0.1,-0.392 -0.839,-0.07 -1.139,-0.054 m -4.29,-1.56 c -0.4,0.73 -0.285,1.383 0.184,1.99 0.884,0.032 1.238,-1.168 1.1,-1.899 0.092,-0.06 0.177,-0.123 0.269,-0.184 -0.03,-0.1 -0.054,-0.177 -0.077,-0.261 l -0.438,-0.023 c -0.323,-0.408 -0.516,-0.416 -0.892,-0.047 -0.254,-0.1 -0.254,-0.1 -0.431,0.131 0.061,0.13 0.146,0.23 0.284,0.292 m 7.198,1.077 c -0.261,0.123 -0.6,0.246 -0.807,-0.062 0.446,-0.184 1,-0.138 1.307,-0.561 0.23,-0.277 0.208,-0.83 -0.23,-0.977 -1.123,-0.315 -2.323,0.254 -3.461,0.354 -2.146,0.577 -0.615,-0.461 -2.315,-0.454 0.608,1.746 2.438,0.623 3.707,0.5 -0.092,0.2 -0.3,0.277 -0.385,0.462 0.446,-0.085 1.039,0.084 1.37,-0.262 0.176,-0.477 1.314,-0.53 1.045,0.116 -1.077,1.045 -4.43,0.061 -5.921,0.738 -0.216,0.677 -0.615,1.13 -1.27,1.315 -0.453,-0.277 -0.691,-0.054 -1.083,-0.062 0.015,0.123 0.053,0.247 0.084,0.37 0.03,0.13 0.046,0.253 0.062,0.384 0.446,-0.046 0.9,-0.223 1.33,-0.338 0.277,-0.085 0.43,-0.362 0.738,-0.354 0.723,0.046 1.138,-0.554 1.761,-0.73 0.77,-0.147 1.546,-0.27 2.33,-0.254 0.908,1.23 1.07,0.184 1.877,0.6 -0.02201,0.120753 -0.04769,0.240808 -0.077,0.36 0.084,0.032 0.154,0.055 0.215,0.078 -0.084,0.3 0.377,0.484 0.438,0.092 0.008,-0.046 -0.015,-0.108 0.047,-0.115 0.484,-0.262 -0.254,-1.53 -0.762,-1.2 m -7.42,-3.36 c -0.031,-0.316 -0.108,-0.685 -0.354,-0.908 -0.285,-0.285 -0.377,-0.685 -0.085,-0.992 -0.146,-0.13 -0.338,-0.023 -0.477,-0.215 -0.177,-0.2 -0.284,0.03 -0.323,0.246 -0.507,0.069 -0.215,0.238 -0.1,0.5 0.162,0.469 0.754,1.576 1.338,1.368 m 4.6,-0.115 c -0.047,0.2 0.137,0.292 0.176,0.446 -0.238,0.154 -0.492,0.161 -0.738,0.192 -0.131,-0.13 -0.185,-0.361 -0.416,-0.3 -0.13,0.031 -0.053,0.17 -0.153,0.223 -0.254,-0.015 -0.254,-0.015 -0.285,0.239 0.07,0.046 0.154,0.092 0.23,0.138 -0.191,0.9 2.27,-0.038 2.63,-0.3 -0.115,-0.207 -0.268,-0.346 -0.315,-0.576 -0.1,-0.4 -0.83,-0.077 -1.13,-0.062 M 52.1,31.645 c -0.392,0.723 -0.277,1.37 0.192,1.977 0.869,0.03 1.223,-1.162 1.084,-1.884 0.085,-0.062 0.177,-0.123 0.262,-0.185 -0.023,-0.092 -0.046,-0.169 -0.07,-0.261 -0.16,-0.008 -0.3,-0.016 -0.438,-0.016 -0.315,-0.408 -0.507,-0.415 -0.884,-0.054 -0.254,-0.092 -0.254,-0.092 -0.43,0.131 0.068,0.13 0.145,0.23 0.284,0.292 m -1.846,2.638 c 0.116,0.008 0.223,-0.123 0.339,-0.008 -0.01405,0.05829 -0.02441,0.117406 -0.031,0.177 0.7,0.307 1.469,-0.039 2.16,-0.223 0.278,-0.085 0.439,-0.37 0.739,-0.362 0.715,0.054 1.13,-0.546 1.746,-0.722 0.76,-0.147 1.53,-0.27 2.314,-0.254 0.892,1.222 1.054,0.184 1.854,0.6 -0.024,0.115 -0.047,0.238 -0.07,0.361 0.085,0.03 0.146,0.054 0.208,0.07 -0.077,0.307 0.377,0.484 0.43,0.1 0.016,-0.047 -0.007,-0.108 0.054,-0.116 0.485,-0.262 -0.253,-1.523 -0.753,-1.192 -0.262,0.123 -0.6,0.238 -0.8,-0.07 0.438,-0.176 0.992,-0.13 1.292,-0.545 0.23,-0.277 0.208,-0.83 -0.223,-0.977 -1.123,-0.308 -2.307,0.254 -3.437,0.354 -2.13,0.577 -0.608,-0.454 -2.3,-0.446 0.608,1.722 2.423,0.615 3.676,0.492 -0.085,0.2 -0.292,0.277 -0.377,0.461 0.446,-0.084 1.03,0.085 1.361,-0.261 0.17,-0.477 1.3,-0.53 1.03,0.115 -1.06,1.03 -4.39,0.062 -5.867,0.73 -0.223,0.678 -0.615,1.124 -1.26,1.308 -0.531,-0.33 -0.77,0.046 -1.293,-0.1 -0.154,-0.161 -0.3,-0.346 -0.53,-0.169 0,0.07 0.007,0.154 0.007,0.246 -0.253,-0.077 -0.538,0.277 -0.269,0.43 m 11.404,13.804 c 0.293,0.447 0.377,1.154 0.877,1.415 0.23,0 0.577,0.208 0.715,-0.06 -0.146,-0.532 -0.807,-0.84 -0.715,-1.447 0.03,-0.146 -0.015,-0.284 -0.138,-0.407 -0.254,0.07 -0.785,-0.508 -0.592,0.184 -0.162,0.054 -0.254,0.162 -0.146,0.316 m 1.545,-2.346 c -0.038,-0.692 -0.838,-1.13 -0.592,-1.822 0.054,-0.131 0.039,-0.285 -0.092,-0.385 -0.23,0.054 -0.23,0.054 -0.408,-0.054 -0.3,-0.146 -0.346,0.185 -0.315,0.393 -0.062,0.03 -0.115,0.053 -0.2,0.092 0.208,0.592 0.83,2.076 1.607,1.776 m 0,8.22 c -0.261,-0.5 -0.661,-0.953 -0.846,-1.476 0.223,-0.323 0.123,-0.73 -0.3,-0.469 -0.107,-0.215 -0.269,-0.261 -0.469,-0.2 -0.054,0.13 -0.084,0.27 0.07,0.37 0.007,0.007 -0.008,0.045 -0.008,0.069 l -0.139,0.046 c -0.107,0.269 0.17,0.43 0.27,0.646 0.292,0.469 0.73,1.607 1.422,1.015 m 2.93,-4.207 c -0.17,0 -0.2,0.216 -0.085,0.316 0.108,0.13 0.223,-0.008 0.347,0.03 0.007,0.07 0.007,0.131 0.015,0.185 0.692,0.038 1.73,-0.577 2.1,-1.13 -0.147,-0.231 -0.285,-0.447 -0.431,-0.67 -0.377,0.123 -0.8,0.116 -1.023,0.454 l 0.384,0.408 c -0.253,0.138 -0.546,0.376 -0.822,0.146 -0.108,-0.1 -0.423,-0.054 -0.347,0.146 0.008,0.03 -0.007,0.069 -0.015,0.1 -0.046,0.008 -0.084,0.015 -0.123,0.015 m 1.046,2.792 c -0.385,0.092 -0.761,0.123 -0.992,0.507 0.092,0.131 0.184,0.246 0.277,0.385 -0.177,0.461 -0.639,0.384 -1.077,0.407 0.039,0.146 0.062,0.223 0.092,0.323 -0.184,0.1 -0.261,0.262 -0.223,0.492 0.054,0.016 0.108,0.039 0.17,0.054 0.123,-0.146 0.338,-0.3 0.392,-0.016 0.784,-0.261 1.492,-0.738 1.868,-1.476 -0.223,-0.177 -0.415,-0.385 -0.507,-0.677 m 2.914,-3.137 c -1.284,-0.43 -3.306,2.369 -4.16,1.546 -0.208,-0.454 -0.846,-0.4 -1.246,-0.277 0.485,0.346 0.746,1.107 1.477,0.861 0.83,-0.161 1.476,-0.83 2.191,-1.138 0.024,0.246 -0.223,0.346 -0.323,0.577 0.493,-0.154 0.931,-0.292 1.292,-0.608 -0.061,-1.353 1.877,-0.407 0.016,0.431 0.33,0.008 0.561,0.154 0.784,-0.115 0.423,-0.385 0.446,-0.93 -0.03,-1.277 M 64.95,47.294 c -0.13,-0.077 -0.292,-0.077 -0.438,-0.069 -0.239,-0.623 -0.677,-0.384 -1.023,-0.016 -0.53,-0.207 -0.446,0.262 -0.17,0.516 -0.269,0.646 -0.084,1.592 0.593,1.868 0.723,-0.3 0.922,-1.169 0.876,-1.876 0.223,-0.03 0.4,-0.285 0.162,-0.423 M 63.097,53.3 c 0.676,1.615 1.691,-0.438 1.438,-1.315 0.469,-0.392 0.338,-0.615 -0.223,-0.653 -0.2,-0.423 -0.631,-0.47 -0.93,-0.108 -0.1,0.13 -0.255,0.085 -0.393,0.092 -0.292,0.139 -0.13,0.454 0.123,0.523 -0.138,0.492 -0.208,0.977 -0.015,1.461 m 0.176,-9.15 c -0.23,0.653 0.008,1.522 0.616,1.883 0.692,-0.315 1.138,-1.222 0.892,-1.984 0.169,-0.138 0.376,-0.207 0.315,-0.438 -0.115,-0.261 -0.523,-0.07 -0.63,-0.377 -0.262,-0.354 -0.608,-0.061 -0.823,0.177 -0.154,0.016 -0.316,-0.061 -0.462,0.016 -0.154,0.276 0.27,0.438 0.092,0.723 m 6.498,6.92 c -1.438,-0.192 -1.222,0.8 -1.93,0.57 0.131,-0.154 0.485,-0.247 0.37,-0.485 -1.054,0.461 -2.161,0.784 -3.215,1.261 -0.53,0.569 -0.354,1.7 -1.561,1.8 -0.039,0.584 -0.861,0.984 -1.377,0.722 -0.2,0.193 -0.115,0.239 -0.084,0.423 -0.17,0.154 -0.408,0.515 -0.031,0.515 0.115,-0.023 0.208,-0.2 0.33,-0.146 -0.007,0.077 -0.022,0.154 -0.03,0.239 0.1,0 0.23,0.03 0.27,-0.016 0.16,-0.2 0.399,-0.03 0.584,-0.192 0.622,-0.416 1.5,-0.8 1.453,-1.661 1.092,-0.485 1.73,-2.253 3.145,-1.63 0.708,0.384 0.9,-0.754 1.53,-0.785 0.177,0.415 0.262,0.385 0.493,0.246 0.392,0.308 0.323,-0.177 0.484,-0.4 0.015,-0.215 -0.208,-0.469 -0.43,-0.461 m -8.09,-4.475 c 0.138,0.046 0.084,0.207 0.146,0.292 0.723,0.046 1.453,-0.146 2.176,-0.238 0.546,0 0.523,-0.477 0.923,-0.546 0.969,0.053 1.569,-0.8 2.476,-0.939 0.723,-0.207 1.707,-0.469 2.345,0.039 0.162,0.169 0.385,0.207 0.616,0.161 0.307,-0.054 0.669,-0.123 0.83,0.239 -0.05414,0.06074 -0.11051,0.119443 -0.169,0.176 0.03,0.07 0.061,0.146 0.1,0.223 0.154,-0.008 0.177,0.116 0.23,0.208 0.085,0.138 0.278,0.138 0.308,0 0.039,-0.17 0.216,-0.085 0.27,-0.23 0.03,-0.447 -0.07,-1 -0.516,-1.223 -0.215,-0.2 -1.076,0.215 -1.1,-0.208 0.639,0.146 1.877,-0.692 1.023,-1.238 -1.43,-0.339 -3.014,0.361 -4.468,0.523 -0.576,0.13 -0.292,-0.808 -1.553,-0.554 0.815,1.7 2.568,0.5 3.937,0.485 0.008,0.146 -0.253,0.138 -0.192,0.33 0.392,-0.123 1.069,0.093 1.3,-0.307 0.123,-0.485 1.138,-0.37 0.838,0.192 -0.761,0.484 -1.9,0.261 -2.792,0.361 -1.1,0.093 -2.299,0.123 -3.33,0.5 -0.2,0.639 -0.484,1.292 -1.214,1.446 -0.516,-0.5 -1.262,0.092 -1.815,-0.415 -0.177,0.038 -0.216,0.146 -0.285,0.284 -0.269,0.1 -0.361,0.254 -0.084,0.439 m 7.59,1.353 c 0.838,-0.016 2.783,-0.938 1.369,-1.7 -0.793,-0.13 -1.585,0.254 -2.346,0.431 -3.068,1.215 -1.269,-0.277 -3.176,-0.107 0.646,1.622 2.269,0.784 3.484,0.407 0.038,0.177 -0.185,0.223 -0.154,0.4 0.407,-0.085 0.8,-0.169 1.184,-0.246 0.17,-0.8 1.623,-0.807 0.954,-0.008 -1.677,0.73 -3.66,0.592 -5.414,1.092 -1.177,3.084 -3.222,0.984 -3.2,1.869 -0.46,0.046 -0.453,0.484 0.016,0.446 0.008,0.9 2.276,-0.139 2.7,-0.416 l 0.284,-0.615 c 0.692,0.33 1.176,-0.661 1.769,-0.83 0.6,-0.123 1.376,-0.708 1.884,-0.17 0.561,0.623 1.407,-0.322 1.9,0.3 -0.185,0.493 0.06,0.277 0.145,0.577 -0.008,0.277 0.446,0.277 0.454,0 0,-0.123 0.015,-0.2 0.13,-0.246 0.254,-0.384 -0.284,-0.8 -0.468,-1.123 -0.416,-0.4 -1.1,0.362 -1.515,-0.061 M 38.104,16.833 c -0.254,0.277 -0.684,-0.138 -0.415,-0.4 0.253,-0.276 0.676,0.131 0.415,0.4 m -0.777,1.654 -0.177,0.092 c -0.161,-0.33 -0.423,-0.969 -0.43,-1.523 -0.008,-0.13 0.192,-0.138 0.192,-0.015 0,0.384 0.154,0.9 0.415,1.445 m 2.184,-0.56 -0.246,0.03 c -0.63,-0.515 -1.415,-0.746 -2.16,-0.615 -0.008,-0.07 -0.024,-0.138 -0.031,-0.2 0.86,-0.146 1.753,0.154 2.437,0.784 m -0.684,-0.93 c -0.262,0.277 -0.685,-0.13 -0.423,-0.4 0.254,-0.277 0.684,0.13 0.423,0.4 m -1.454,-0.154 c -0.253,0.277 -0.684,-0.13 -0.415,-0.4 0.254,-0.269 0.677,0.13 0.415,0.4 m 2.692,0.946 c -0.254,0.277 -0.684,-0.13 -0.415,-0.4 0.253,-0.27 0.684,0.138 0.415,0.4 m -0.577,-0.484 c -0.261,0.276 -0.684,-0.131 -0.423,-0.4 0.254,-0.27 0.685,0.138 0.423,0.4 m -5.521,1.245 c 0.384,0.016 0.384,-0.576 0.007,-0.576 -0.369,-0.008 -0.384,0.584 -0.007,0.576 m 1.7,0.639 0.184,-0.062 c -0.123,-0.346 -0.392,-0.976 -0.785,-1.369 -0.084,-0.092 -0.23,0.039 -0.146,0.131 0.277,0.27 0.539,0.73 0.746,1.3 m -1.9,1.138 0.193,-0.162 c 0.077,-0.807 0.461,-1.53 1.077,-1.968 -0.046,-0.062 -0.085,-0.108 -0.123,-0.162 -0.708,0.508 -1.115,1.361 -1.146,2.292 M 70.51,35.95 v 0.008 c 0.008,0 0.008,0 0,-0.008 m -3.415,-4.23 h 4.053 v 9.436 H 62.35 V 31.72 Z m 4.891,9.428 c 0.008,-0.177 -0.192,-0.315 -0.369,-0.254 v 0.039 c -0.323,1.446 -0.161,-4.499 -0.192,-4.283 l 0.292,0.123 V 36.08 l -0.292,0.124 V 31.82 c 0.038,-0.215 0.384,-0.03 0.2,0.116 v 0.038 c 0.4,0.123 0.515,-0.523 0.084,-0.523 l 0.27,-0.47 -0.062,-0.06 c -0.008,0 -0.485,0.261 -0.485,0.261 -0.008,-0.4 -0.692,-0.3 -0.56,0.085 h 0.045 c 0.139,-0.17 0.354,0.138 0.116,0.184 h -4.038 l 0.123,-0.269 H 66.38 l 0.13,0.27 H 62.474 C 62.228,31.42 62.435,31.09 62.581,31.267 h 0.039 c 0.138,-0.385 -0.546,-0.485 -0.554,-0.085 0,0.008 -0.477,-0.261 -0.484,-0.261 l -0.062,0.06 0.27,0.47 c -0.431,0.008 -0.316,0.646 0.084,0.523 v -0.038 c 0.315,-1.446 0.169,4.467 0.192,4.268 L 61.782,36.08 v 0.693 l 0.284,-0.116 c -0.023,-0.107 0.123,5.683 -0.192,4.276 v -0.039 c -0.4,-0.123 -0.523,0.523 -0.085,0.523 l -0.269,0.47 0.062,0.06 c 0.007,0 0.484,-0.268 0.484,-0.26 0.008,0.4 0.692,0.3 0.554,-0.085 h -0.039 c -0.061,0.092 -0.23,0.046 -0.223,-0.07 0,-0.061 0.046,-0.107 0.108,-0.115 h 4.045 l -0.13,0.277 h 0.737 l -0.123,-0.277 h 4.038 c 0.053,0.008 0.107,0.054 0.107,0.115 0,0.116 -0.169,0.162 -0.23,0.07 h -0.039 c -0.13,0.384 0.546,0.484 0.554,0.084 0.008,-0.008 0.484,0.262 0.484,0.262 l 0.07,-0.062 -0.27,-0.469 c 0.151451,0.0039 0.27649,-0.117499 0.277,-0.269 m -9.005,-4.322 v -0.008 c -0.008,0.008 0,0.085 0,0.093 0.016,-0.17 0.277,-0.046 0.146,0.069 l 0.039,0.038 c 0.269,0.031 0.307,-0.369 0.038,-0.384 v -0.008 l 0.323,-0.146 v -0.092 l -0.323,-0.147 v -0.008 c 0.27,-0.015 0.23,-0.415 -0.038,-0.384 l -0.039,0.038 c 0.131,0.116 -0.138,0.239 -0.146,0.07 0,0.015 -0.008,0.092 0,0.1 v -3.484 h 0.27 v -0.254 h 2.998 c 0.17,0.023 0.031,0.254 -0.076,0.139 l -0.047,0.038 c -0.03,0.262 0.416,0.277 0.416,0.016 l 0.153,0.315 h 0.108 l 0.146,-0.315 c 0,0.261 0.446,0.246 0.415,-0.016 l -0.038,-0.038 c -0.108,0.115 -0.254,-0.116 -0.085,-0.139 h 3 v 0.254 h 0.276 c -0.03,-0.054 0.116,4.276 -0.138,3.315 l -0.046,-0.039 c -0.27,-0.03 -0.3,0.37 -0.039,0.385 v 0.008 l -0.323,0.146 v 0.092 l 0.323,0.146 v 0.008 c -0.261,0.008 -0.23,0.415 0.039,0.385 l 0.046,-0.039 c 0.246,-0.984 0.108,3.438 0.138,3.315 h -0.276 v 0.261 h -2.992 c -0.177,-0.023 -0.038,-0.261 0.077,-0.138 l 0.038,-0.039 c 0.031,-0.261 -0.4,-0.284 -0.407,-0.03 h -0.008 l -0.154,-0.308 h -0.1 l -0.153,0.307 h -0.008 c -0.008,-0.253 -0.43,-0.23 -0.408,0.031 l 0.046,0.039 c 0.108,-0.123 0.247,0.115 0.077,0.138 H 63.25 v -0.261 h -0.269 z m 3.361,3.731 h -0.008 z m 0.815,0 h -0.008 0.008 m 3.084,0.26 h 0.553 V 32.06 h -8.09 v 8.759 z M 64.98,30.03 c 0.2,-0.792 0.476,-2.153 0.915,-2.822 l -0.862,-0.292 c 0.008,0.861 -0.446,2.192 -0.738,3.007 0.33,0.046 0.33,0.046 0.685,0.107 m -4.707,-1.591 c -0.007,-0.539 0.07,-1.485 -0.161,-1.946 h 1.107 c -0.177,0.5 -0.5,2.792 0.446,2.676 0.377,0.008 0.754,-0.254 0.738,-0.646 -0.015,-0.546 0.077,-1.56 -0.161,-2.03 h 1.115 c -0.261,0.861 -0.261,2.376 0,3.238 h -0.946 c 0.023,-0.07 0.03,-0.177 0.03,-0.323 -0.96,0.684 -2.26,0.346 -2.168,-0.97 m -2.368,0.885 c 1.246,-0.484 0.161,-2.422 -0.946,-1.969 -1.238,0.477 -0.17,2.43 0.946,1.969 m 1.9,0.5 0.007,0.016 c -0.5,0.4 -1.13,0.238 -1.669,-0.046 -1.553,0.869 -3.237,-1.177 -1.984,-2.492 1.307,-1.561 3.914,0.215 2.66,1.938 0.408,0.315 0.74,0.507 0.985,0.584 m -7.298,0.43 h 1.039 c -0.393,-0.615 -0.708,-1.122 -0.708,-1.122 0.362,-0.216 1.123,-0.515 1.461,-0.492 l -0.807,-0.623 -2.5,1.492 0.285,0.96 0.015,0.009 c 0.2,-0.4 0.508,-0.723 0.839,-0.908 0.076,0.139 0.207,0.385 0.376,0.685 m -3.714,4.583 c -1.5,-0.092 -1.815,-2.684 0,-2.292 v -0.63 c -2.345,-0.139 -2.315,3.583 0,3.506 z m -0.661,0.984 c -0.539,-0.423 -1.23,0.339 -1.769,0.462 -0.938,0.053 -0.2,-1.115 0.37,-1.192 l 0.007,-0.016 -0.454,-0.33 c -0.846,0.43 -1.492,2.26 -0.123,2.299 0.292,0.015 1.03,-0.5 1.277,-0.554 0.638,-0.123 0.438,0.738 0.054,0.946 0.192,-0.008 0.384,-0.039 0.569,0.015 0.361,-0.5 0.584,-1.23 0.069,-1.63 m 20.017,22.686 1.8,-1.038 c -0.231,-0.17 -1.63,-2.461 -1.677,-2.738 l -1.707,0.984 0.077,0.7 h 0.015 c 0.27,-0.33 0.646,-0.646 1.138,-0.923 l 0.53,0.861 c -0.276,0.147 -0.868,0.508 -1.099,0.546 l 0.315,0.385 1,-0.577 0.508,0.83 c -0.339,0.185 -0.654,0.285 -0.939,0.3 z m 7.129,-6.321 0.307,-0.6 -2.576,-1.73 -0.285,0.538 c 0.093,0.13 1.777,1.122 1.777,1.122 0,0 -2.776,0.362 -2.9,0.577 l 2.577,1.769 0.3,-0.43 -1.546,-1.008 c 0,0 2.269,-0.262 2.346,-0.238 M 76.6,49.6 77.17,47.662 c -0.293,0.023 -2.908,-0.738 -3.138,-0.915 l -0.539,1.845 0.546,0.462 0.008,-0.008 c -0.038,-0.423 0.016,-0.9 0.17,-1.43 l 0.992,0.292 c -0.1,0.284 -0.27,0.945 -0.408,1.115 l 0.492,0.077 0.316,-1.077 0.953,0.277 c -0.115,0.354 -0.27,0.63 -0.469,0.838 z m -5.521,6.99 c 2.015,-0.877 1.56,-2.884 -0.708,-1.969 -0.953,-0.269 0.254,-1.238 0.885,-1.023 l 0.015,-0.015 -0.484,-0.562 c -0.708,0.308 -1.854,1.27 -1.246,2.092 0.423,0.538 1.269,-0.038 1.822,-0.03 0.923,0.168 -0.061,1.122 -0.638,1.068 l -0.008,0.016 m -23.531,-13.795 0.046,-0.7 c -0.938,0.177 -2.461,0.177 -3.391,-0.008 l -0.047,0.7 c 0.939,-0.177 2.453,-0.177 3.392,0.008 m 0.315,11.481 0.554,0.77 c 0.592,-0.724 1.807,-1.6 2.683,-1.939 l -0.56,-0.769 c -0.216,0.354 -0.685,0.7 -1.054,0.954 L 48.27,51.692 c 0.361,-0.269 0.83,-0.615 1.238,-0.707 l -0.561,-0.77 c -0.585,0.731 -1.8,1.608 -2.676,1.939 l 0.553,0.769 c 0.216,-0.346 0.685,-0.692 1.054,-0.946 l 0.853,1.176 c -0.361,0.27 -0.83,0.608 -1.23,0.7 m -2.023,-5.29 c 0.693,-1.27 3.023,-0.516 2.061,0.93 -0.722,1.223 -3.006,0.53 -2.06,-0.93 m -0.185,1.699 c 1.584,1.523 4.091,-0.915 2.438,-2.484 -1.584,-1.538 -4.13,0.915 -2.438,2.484 m -1.177,-4.222 0.185,0.715 3.291,-0.407 -0.161,-0.646 c -0.17,-0.039 -2.223,0.338 -2.223,0.338 0,0 1.954,-2.268 1.907,-2.537 l -3.322,0.369 0.07,0.576 1.953,-0.276 c 0,0 -1.623,1.837 -1.7,1.868 m 42.565,4.73 c -0.093,0.1 -0.685,1.776 -0.877,1.714 -0.085,-0.138 -0.27,-0.223 -0.423,-0.176 -0.085,-0.046 -0.123,-0.17 -0.077,-0.277 0.115,-0.116 0.661,-1.83 0.923,-1.715 0.07125,0.167892 0.251724,0.261489 0.43,0.223 0.047,0.061 0.054,0.146 0.024,0.23 m -1.6,5.853 c 0.054,-0.423 -0.5,-0.662 -0.715,-0.3 0.054,-0.162 -0.154,-1.769 0.146,-1.769 0.122408,0.09705 0.29361,0.103526 0.423,0.016 0.092,0.016 0.17,0.108 0.17,0.215 v 1.738 c 0,0.03 -0.009,0.07 -0.024,0.1 m 0.861,3.022 c -0.515,2.953 -4.306,0.031 -1.592,-1.215 0.131,0.277 0.562,0.293 0.685,0.008 0.523,0.154 0.907,0.639 0.907,1.208 m 0.393,-9.89 c -0.831,-0.515 -1.292,1.777 -1.6,2.177 -0.146,0.33 -0.015,0.692 0.292,0.8 L 84.413,54 c -0.33,-0.054 -0.615,0.2 -0.615,0.585 0.123,0.492 -0.37,2.637 0.507,2.668 v 0.592 c -2.107,0.377 -1.791,3.691 0.377,3.645 2.146,0.054 2.484,-3.237 0.4,-3.637 v -0.577 c 0.323,0.054 0.608,-0.192 0.615,-0.577 -0.115,-0.476 0.33,-2.553 -0.438,-2.66 l 0.461,-0.962 c 0.792,0.423 1.254,-1.814 1.554,-2.191 0.138,-0.316 0.03,-0.67 -0.246,-0.785 l 0.353,-0.738 c -0.1,-0.123 -0.3,-0.43 -0.5,-0.754 z m 0.492,-1.239 h 0.008 c -0.07,-0.115 -0.139,-0.23 -0.193,-0.338 0.0104,0.133966 0.07776,0.257037 0.185,0.338 M 60.936,2.615 c -0.108,0.83 -0.539,1.468 -1.077,1.568 v 0.208 h 1.054 C 60.859,4.429 60.82,4.476 60.782,4.521 58.905,4.937 58.721,7.79 60.505,8.467 59.805,7.79 60.343,6.498 61.328,6.529 62.312,6.499 62.85,7.79 62.151,8.467 63.942,7.79 63.742,4.937 61.874,4.522 61.835,4.476 61.797,4.429 61.743,4.391 h 1.054 V 4.183 C 62.258,4.083 61.82,3.445 61.72,2.615 c 0.823,0.107 1.461,0.538 1.561,1.076 h 0.215 v -2.93 h -0.215 c -0.1,0.539 -0.738,0.97 -1.561,1.077 0.1,-0.83 0.538,-1.469 1.077,-1.569 V 0.062 h -2.938 v 0.207 c 0.538,0.1 0.969,0.738 1.077,1.569 C 60.113,1.73 59.475,1.3 59.375,0.761 h -0.216 v 2.93 h 0.216 c 0.1,-0.538 0.738,-0.969 1.56,-1.076 m 0.908,5.444 c 0.723,-1.338 -1.753,-1.338 -1.03,0 0.3,-0.184 0.73,-0.184 1.03,0 M 60.874,9.42 c 0.287509,-0.1460788 0.627491,-0.1460788 0.915,0 0.923,-1.43 -1.845,-1.422 -0.915,0 m 0.454,1.584 c 0.838,0.008 0.838,-1.307 0,-1.3 -0.838,-0.007 -0.838,1.308 0,1.3 m 0,1.615 c 0.838,0.016 0.838,-1.3 0,-1.292 -0.838,-0.008 -0.838,1.308 0,1.292 m 0,1.623 c 0.838,0.016 0.838,-1.307 0,-1.292 -0.838,-0.016 -0.838,1.307 0,1.292 m -1.823,0.008 h 0.792 c 0,-1.523 -0.146,-4.384 -1.092,-6.468 -0.207,-0.469 -0.946,-0.13 -0.723,0.331 0.662,1.446 1.023,3.622 1.023,6.137 m 2.853,0 h 0.792 c 0,-2.515 0.362,-4.691 1.023,-6.137 0.223,-0.461 -0.515,-0.8 -0.723,-0.33 -0.953,2.083 -1.092,4.944 -1.092,6.467 M 55.906,8.713 c 0.777,0.008 0.777,-1.208 0,-1.2 -0.776,-0.008 -0.776,1.207 0,1.2 m -5.075,3.668 c 0.769,0.008 0.769,-1.207 0,-1.2 -0.777,-0.008 -0.777,1.208 0,1.2 m 6.56,-4.214 c 0.776,0.016 0.776,-1.2 0,-1.192 -0.777,-0.008 -0.777,1.207 0,1.192 m -8.421,6.775 c 0.777,0.008 0.777,-1.208 0,-1.192 -0.769,-0.016 -0.769,1.2 0,1.192 m 0.869,-1.33 c 0.769,0.015 0.769,-1.208 0,-1.193 -0.777,-0.015 -0.777,1.208 0,1.192 m 4.652,-4.198 c 0.777,0.007 0.777,-1.208 0,-1.2 -0.769,-0.008 -0.769,1.207 0,1.2 m -6.244,6.928 c 0.777,0.016 0.777,-1.2 0,-1.192 -0.769,-0.008 -0.769,1.208 0,1.192 m 3.699,-5.083 c 0.769,0.016 0.769,-1.2 0,-1.192 -0.777,-0.008 -0.777,1.208 0,1.192 m 1.223,-0.992 c 0.776,0.016 0.776,-1.2 0,-1.192 -0.777,-0.008 -0.777,1.208 0,1.192 m 19.056,2.746 c -0.016,0.776 1.207,0.776 1.191,0 0.016,-0.77 -1.207,-0.77 -1.191,0 m -0.4,-0.631 c 0.776,0.008 0.776,-1.207 0,-1.2 -0.777,-0.008 -0.777,1.208 0,1.2 m 1.26,1.96 c -0.007,0.778 1.208,0.778 1.193,0 0.015,-0.768 -1.2,-0.768 -1.192,0 m 0.723,1.408 c -0.016,0.77 1.207,0.77 1.192,0 0.015,-0.777 -1.208,-0.777 -1.192,0 m -3.1,-4.49 c 0.777,0.015 0.777,-1.2 0,-1.193 -0.768,-0.008 -0.768,1.208 0,1.192 M 68.164,9.413 c 0.77,0.007 0.77,-1.208 0,-1.2 -0.776,-0.008 -0.776,1.207 0,1.2 M 65.265,8.167 c 0.777,0.016 0.777,-1.2 0,-1.192 -0.777,-0.008 -0.777,1.207 0,1.192 m 1.484,0.546 c 0.777,0.008 0.777,-1.208 0,-1.2 -0.769,-0.008 -0.769,1.207 0,1.2 m 2.738,1.553 c 0.777,0.016 0.777,-1.2 0,-1.192 -0.777,-0.008 -0.777,1.208 0,1.192 m -19.879,5.837 1.085,-0.346 c 1.676,-3.045 4.475,-5.299 7.79,-6.137 -0.07207,-0.270503 -0.156832,-0.5374648 -0.254,-0.8 -3.776,0.97 -6.914,3.676 -8.62,7.283 m 22.362,-0.346 1.076,0.346 C 71.34,12.496 68.203,9.789 64.427,8.82 c -0.09716,0.262538 -0.181919,0.5294995 -0.254,0.8 3.314,0.838 6.114,3.1 7.798,6.137 M 50.377,58.429 c 0.423,0.792 2.869,2.96 3.538,1.938 -1.2,-0.608 -3.222,-2.1 -2.446,-4 -1.76,-1.076 -0.207,-2.798 1.161,-1.337 1.462,-0.9 3.084,-0.254 4.522,0.746 0.515,-1.123 -1.992,-1.892 -2.576,-2.223 -0.738,-0.246 -3.068,0.277 -3.853,0.315 -0.530372,0.06826 -0.911194,0.544615 -0.861,1.077 0.115,0.561 0.1,3.03 0.515,3.484 m 2.707,-0.508 c 1.907,0.008 1.661,-3.007 -0.215,-2.691 0.869,0.469 1.622,1.714 0.269,2.084 -0.508,0.1 -1.03,-0.454 -1.407,-0.723 0.015,0.738 0.615,1.33 1.353,1.33 m 0.223,-1.253 c 0.492,-0.592 -1.23,-1.37 -1.484,-1.7 -0.208,-0.115 -0.461,-0.092 -0.6,0.085 -0.492,0.569 1.207,1.353 1.438,1.669 0.208,0.16 0.5,0.138 0.646,-0.054 m 10.62,8.528 c -0.646,0.061 -0.977,0.5 -1.315,0.946 -0.3,-0.193 -0.7,-0.377 -1.069,-0.377 -0.2,0 -0.384,0.054 -0.554,0.192 1.177,0.462 0.754,2.238 -0.384,2.246 -1.146,-0.008 -1.569,-1.784 -0.392,-2.246 -0.154974,-0.129594 -0.352068,-0.197901 -0.554,-0.192 -0.37,0 -0.769,0.184 -1.061,0.377 -0.346,-0.446 -0.677,-0.885 -1.315,-0.946 0.346,3.253 1.838,4.883 3.322,4.883 1.484,0 2.968,-1.63 3.322,-4.883 m -0.538,0.7 c -0.462,2.583 -1.692,3.745 -2.784,3.745 -1.1,0 -2.33,-1.162 -2.784,-3.745 0.139,0.13 0.27,0.3 0.43,0.507 l 0.24,0.315 0.33,-0.207 c 0.146,-0.092 0.284,-0.162 0.415,-0.215 -0.146,0.3 -0.2,0.653 -0.13,1.015 0.145,0.776 0.76,1.315 1.499,1.322 0.73,-0.008 1.346,-0.546 1.492,-1.322 0.069,-0.362 0.015,-0.716 -0.13,-1.015 0.13,0.053 0.268,0.123 0.414,0.215 l 0.339,0.207 0.238,-0.315 c 0.154,-0.207 0.285,-0.377 0.43,-0.507 m -6.19,-6.998 c 0.154,-0.715 -0.969,-0.946 -1.107,-0.231 -0.162,0.715 0.969,0.946 1.107,0.23 m 3.845,1.908 c 0.154,-0.715 -0.969,-0.946 -1.107,-0.23 -0.162,0.714 0.969,0.945 1.107,0.23 m -0.815,3.46 c -0.13,0.577 0.777,0.77 0.892,0.185 0.123,-0.577 -0.784,-0.761 -0.892,-0.185 m 0.13,-18.233 c -0.43,-0.038 -0.883,-0.123 -1.299,-0.161 -0.815,0.707 0.1,1.107 0.708,1.053 0.515,0.139 1.215,-0.553 0.592,-0.892 m -6.729,1.9 c 0.892122,1.130751 1.771511,2.271489 2.638,3.422 0.123,0.016 0.369,0.061 0.369,0.061 l -3.145,-4.168 c 0,0 -0.054,0.423 0.138,0.685 m 3.868,3.383 -3.853,-5.106 c 0,0 -0.076,0.239 -0.107,0.346 l 3.691,4.899 z m -0.377,2.054 c -0.061,-0.023 -0.13,-0.039 -0.207,-0.07 -0.108,0.285 -0.27,0.792 -0.016,0.97 l 1.254,0.538 1.607,-1.192 0.438,-6.468 -0.476,0.039 c -0.123,0.015 -1,7.467 -1.461,7.028 0.092,-0.492 1.16,-7.028 1.16,-7.028 l -0.476,-0.07 c -0.023,0.154 -0.054,0.346 -0.054,0.346 l -1.784,-2.337 -0.23,0.115 1.906,2.5 -0.123,0.445 C 58.483,48.07 56.645,45.517 56.46,45.279 l -0.377,-0.023 2.476,3.23 -0.13,0.43 -2.776,-3.653 h -0.354 l 3.007,3.96 -0.162,0.57 -3.299,-4.484 -0.438,0.008 3.653,4.822 -0.131,0.446 -4.03,-5.268 -0.069,0.408 c 0,0 3.753,4.93 3.983,5.252 -0.2,0.608 -0.046,0.662 0.216,1.161 0.146,0.562 -0.246,1.438 -0.908,1.23 M 52.8,51.047 c 0.446,0.262 0.945,0.554 1.4,0.808 -1.116,1.36 0.891,1.953 0.776,0.623 0.753,0.323 3.706,1.23 2.522,-0.539 -3.876,0.131 -5.844,-3.93 -3.699,-7.036 1.3,0.592 5.875,-1.63 5.491,0.63 0.246,0.254 0.308,0.277 0.854,0.27 1.322,-3.038 -3.238,-2.13 -4.868,-1.769 -1.461,0.43 -2.807,-1.707 -4.091,-0.538 -0.516,0.453 -0.185,1.46 0.515,1.5 0.615,0.015 0.792,-0.831 0.246,-1.1 1.2,-0.408 0.623,1.522 0.185,2.022 -1.377,-0.715 -1.608,1.507 -0.239,0.923 0.054,0.4 0.077,0.792 -0.023,1.169 -1.484,-0.323 -1.092,1.815 0.03,0.961 0.316,0.3 0.47,0.777 0.508,1.23 -1.5,0.216 -0.307,2.13 0.393,0.846 M 37.097,19.902 c -0.016,-0.292 0.192,-0.862 0.192,-0.862 -0.292,0.116 -0.892,0.354 -1.184,0.477 0,0 0.538,0.27 0.73,0.492 -0.254,0.093 -0.492,0.131 -0.838,-0.03 l 0.454,0.922 c 0.1,-0.407 0.315,-0.645 0.469,-0.684 0.5,0.77 -0.739,1.615 -1.277,0.961 -0.161,-0.277 0.03,-0.576 0.346,-0.346 -0.046,-0.569 -0.538,-0.569 -0.692,-0.146 0.015,-0.584 -0.13,-0.938 -0.746,-1.107 -0.161,0.584 0.039,0.93 0.615,1.184 -0.33,-0.046 -0.684,0.285 -0.23,0.692 0,-0.369 0.307,-0.407 0.469,-0.161 0.269,0.684 -0.53,0.946 -1.184,0.254 0.146,-0.054 0.3,-0.031 0.507,0.015 l -0.63,-0.792 c 0.038,0.285 0.015,0.485 -0.039,0.608 -0.138,-0.154 -0.177,-0.293 -0.238,-0.6 l -0.477,0.423 c 0.454,0.284 0.969,0.738 1.6,1.63 0.83,-0.815 4.175,-2.215 5.467,-2.176 -0.154,-1.084 -0.092,-1.761 0.038,-2.284 l -0.63,0.023 c 0.169,0.261 0.223,0.392 0.238,0.6 -0.13,-0.054 -0.277,-0.185 -0.446,-0.415 l 0.085,1.007 c 0.115,-0.177 0.215,-0.3 0.361,-0.362 -0.007,0.954 -0.761,1.315 -1.038,0.639 -0.054,-0.3 0.2,-0.477 0.454,-0.216 0.046,-0.607 -0.439,-0.6 -0.654,-0.338 0.254,-0.584 0.154,-0.969 -0.361,-1.284 -0.323,0.546 -0.193,0.9 0.223,1.315 -0.4,-0.2 -0.762,0.138 -0.408,0.584 0.077,-0.384 0.415,-0.3 0.492,0.008 0.062,0.846 -1.422,1.084 -1.584,0.185 0.139,-0.085 0.454,-0.054 0.808,0.169 l -0.3,-0.985 c -0.100228,0.276866 -0.316505,0.496065 -0.592,0.6 m -3.515,-0.723 c 0.377,0.016 0.385,-0.577 0.008,-0.577 -0.377,-0.008 -0.385,0.577 -0.008,0.577 m 0.908,-1.138 c 0.376,0.008 0.384,-0.585 0.007,-0.585 -0.376,-0.008 -0.384,0.585 -0.007,0.585 m -1.215,2.584 c 0.384,0.008 0.384,-0.577 0.015,-0.577 -0.377,-0.016 -0.384,0.577 -0.015,0.577 m 0.061,-0.754 c 0.385,0.008 0.385,-0.584 0.008,-0.584 -0.37,-0.008 -0.377,0.584 -0.008,0.584 m 1.669,-3.999 v 0.008 l -0.585,0.038 0.308,0.77 0.408,-0.485 c 0.023,0.016 0.046,0.03 0.077,0.03 l 0.061,1.023 c 0.1,0.9 1.461,0.347 0.923,-0.369 l -0.654,-0.776 c 0.008,-0.031 0.023,-0.054 0.031,-0.077 l 0.623,0.061 -0.3,-0.761 -0.454,0.369 c -0.02357,-0.01471 -0.04969,-0.02488 -0.077,-0.03 l -0.053,-0.739 c -0.185,0.07 -0.562,0.223 -0.746,0.292 l 0.469,0.577 c -0.008,0.023 -0.023,0.046 -0.031,0.07 m 1.684,3.044 c 0.246,-0.23 -0.123,-0.6 -0.361,-0.369 -0.246,0.231 0.123,0.6 0.361,0.37 m -0.323,-0.677 c 0.246,-0.23 -0.123,-0.6 -0.354,-0.37 -0.246,0.231 0.116,0.608 0.354,0.37 m 44.256,-7.898 c 0.13,-0.461 -0.53,-1.076 -1,-0.892 0.062,0.515 0.6,0.961 1,0.892 M 74.77,36.182 c 0.446,-0.262 0.915,-0.462 1.323,-0.785 -0.1,-0.138 -0.17,-0.238 -0.27,-0.384 -0.392,0.376 -1.3,0.5 -1.053,1.169 m 2.538,-1.023 c 0.23,0.392 0.453,0.776 0.676,1.153 0.885,0 0.139,-0.73 -0.069,-1.046 -0.115,-0.123 -0.361,-0.123 -0.546,-0.184 -0.023,0.03 -0.038,0.054 -0.061,0.077 m 4.383,-23.64 c -0.338,-0.722 -0.515,-0.814 -1.23,-0.738 0.292,0.716 0.722,0.985 1.23,0.739 m -0.47,0.446 c 0.247,0.846 0.585,1.03 1.462,0.907 -0.285,-0.7 -0.73,-0.984 -1.461,-0.907 m -1.823,10.143 c -0.96,-0.446 -1.745,0.123 -2.699,-0.085 0.27,1.338 1.861,0.362 2.7,0.085 m 2.752,-8.798 c -0.046,0.846 0.662,1.339 1.838,1.27 -0.307,-0.854 -0.915,-1.316 -1.838,-1.27 m 3.13,2.969 c 0.023,-0.039 0.054,-0.07 0.077,-0.108 -0.692,-0.992 -0.992,-1.192 -2.215,-1.2 0.016,1.2 1.262,1.2 2.138,1.308 m -12.28,18.07 c 0.238,-0.646 1.468,-2.237 0.807,-2.73 -0.308,0.177 -0.954,0.1 -0.892,0.585 v 2.122 c 0.03,0.008 0.053,0.016 0.084,0.023 m -3.776,-4.445 c 0.277,-0.023 0.516,-0.046 0.754,-0.06 0.27,-0.978 -0.292,-1.085 -0.961,-1.616 -0.27,0.815 -0.984,1.208 -1.392,1.892 0.654,-0.038 1.038,-0.254 1.415,-0.77 0.061,0.2 0.123,0.378 0.184,0.555 m 7.644,7.313 c -1.638,2.007 -1.653,2.299 0.846,3.168 -0.023,-0.23 -0.038,-0.377 -0.061,-0.554 -0.485,-0.138 -0.961,-0.323 -1.4,-0.615 0.315,-0.392 0.608,-0.754 0.915,-1.13 -0.102762,-0.28904 -0.202766,-0.579054 -0.3,-0.87 m 1.03,5.891 c -0.46,-0.038 -0.891,-0.077 -1.391,-0.115 0.015,0.246 0.03,0.43 0.046,0.63 0.277,0.07 0.515,0.131 0.77,0.193 0.076,1.453 -0.724,1.476 -1.808,0.869 -0.323,1.845 2.653,1.66 2.384,-1.577 m 6.121,-25.17 c 0.561,0 1.353,0.355 1.815,0.032 0.015,-1.761 -2.138,-1.53 -3.36,-1.57 0.36,0.662 0.83,1.316 1.545,1.539 m 4.691,2.191 c 0.507,1.216 1.33,0.923 1.86,1.723 -0.445,-0.146 -0.837,-0.277 -1.222,-0.408 -0.03,1.3 1.6,1.43 2.5,1.93 -0.147,-2.099 -1.162,-2.89 -3.138,-3.245 m 0.33,6.675 c -0.03,0 -0.06,0.008 -0.092,0.016 -0.269,1.177 0.554,2.215 1.07,3.222 0.891,-1.584 0.853,-3.383 -0.578,-4.645 -0.43,0.846 0.177,1.654 0.393,2.446 -0.031,0.016 -0.062,0.023 -0.093,0.038 -0.23,-0.361 -0.469,-0.723 -0.7,-1.076 m 0.339,-7.714 -0.023,0.1 c -0.37,-0.023 -0.738,-0.046 -1.13,-0.061 0.415,1.338 1.976,0.692 2.952,1.3 -0.561,-1.077 -0.969,-2.123 -2.276,-2.33 0.139,-0.639 -0.03,-1.239 -0.43,-1.477 0.007,0.561 -0.224,0.969 -0.731,1.177 -0.254,1.115 0.9,1.053 1.638,1.291 M 40.519,29.322 c -1.185,0.07 -1.015,-1.415 -1.361,-2.253 -0.216,0.246 -0.393,0.446 -0.585,0.669 l 0.754,2.53 c 0.192,-0.139 0.361,-0.254 0.538,-0.385 0.823,0.585 1.576,0.185 1.853,-0.73 0.246,0.061 0.47,0.169 0.646,-0.008 -0.392,-0.8 -0.761,-1.569 -1.146,-2.361 -0.238,0.054 -0.453,-0.285 -0.738,-0.016 0.262,0.739 1.238,2.207 0.039,2.553 m 49.093,-6.52 c -0.431,0.815 0.8,1.153 0.815,1.93 -0.323,-0.254 -0.6,-0.477 -0.908,-0.723 -0.392,1.515 1.4,2.007 1.946,3.2 0.723,-2.208 0.33,-3.554 -1.853,-4.407 M 49.716,57.39 c 0.5,-0.47 -0.177,-0.739 -0.446,-1.1 -4.468,-4.16 -6.13,-9.559 -5.745,-15.565 -0.107,-0.053 -0.238,-0.123 -0.461,-0.23 -0.746,6.367 1.707,12.788 6.652,16.895 M 34.843,29.82 c 0.277,0.654 0.677,1.416 1.346,1.693 -0.346,-1.3 0.53,-2.423 0.938,-3.6 0.008,2.7 -1.53,4.169 2.177,5.16 -0.985,-1.591 -0.331,-3.521 -0.962,-5.152 -0.592,-0.338 -1.26,-0.423 -1.668,-0.922 -0.108,-0.239 -0.308,-0.323 -0.523,-0.37 -0.692,-0.153 -1.338,-0.384 -1.692,-0.96 -0.508,0.16 -0.815,0.138 -1.277,-0.054 -0.046,0.576 0.446,1.153 1.092,0.93 -0.515,0.761 -0.23,1.438 -0.038,2.215 0.369,-0.777 0.93,-1.246 1.569,-1.638 -0.485,0.823 -1.354,1.66 -0.962,2.699 m 7.267,-5.36 c 0.177,0.892 -0.069,1.638 -0.66,2.345 0.883,1.57 2.368,2.761 3.021,4.46 1.47,-2.745 -0.092,-3.66 -2.114,-5.167 1.291,0.469 2.599,0.915 3.322,2.145 0.153,-2.353 -0.892,-3.53 -3.169,-3.883 l 0.023,-0.1 c 0.946,-0.046 1.892,-0.038 2.784,0.538 -0.238,-0.73 -0.823,-1.807 -1.692,-1.715 0.316,-0.646 0.308,-1.076 -0.007,-1.46 -0.146,0.445 -0.43,0.73 -0.9,0.745 0.1,0.815 -0.17,1.492 -0.608,2.092 m -7.751,0.6 c 0.015,-0.308 0.038,-0.608 0.061,-0.938 -0.353,-0.054 -0.676,-0.116 -1.038,-0.177 0.423,-0.316 0.938,-0.4 1.354,-0.239 -0.362,1.508 0.277,2.561 1.884,2.646 0.492,-0.73 0.93,-0.846 1.407,-0.323 -2.122,-0.223 -0.546,2.015 0.538,1.26 0.285,-0.414 1.2,-0.783 0.939,-1.368 -1.685,-1.23 -1.57,0.585 -1.877,-2.453 -0.077,-0.008 -0.154,-0.008 -0.215,-0.016 -0.162,0.577 -0.73,1.023 -1.192,0.477 -0.162,-0.184 -0.3,-0.346 -0.561,-0.392 1.153,-0.923 2.522,0.4 2.437,-1.753 1.284,1.607 1.392,-0.177 2.661,-0.208 -0.062,1.276 -0.323,1.176 -1.415,1.107 0.354,0.27 1.723,1.638 0.923,1.761 -0.33,-0.853 -0.885,-1.684 -1.83,-1.853 -0.77,0.761 -0.393,1.615 -0.277,2.5 0.684,-0.231 1.26,-0.67 1.976,-0.616 0.239,0.7 -0.884,1.092 -0.246,1.792 1.092,0.177 2.284,0.184 1.93,-1.369 -0.354,-0.215 -0.707,-0.354 -1.076,0.03 0.015,-0.6 0.607,-0.7 1.069,-0.584 1.007,-1.076 0.669,-2.499 -0.416,-3.368 0.285,-0.415 0.592,-0.707 1.115,-0.815 -0.177,0.369 -0.546,0.5 -0.63,0.83 0.238,0.3 0.469,0.577 0.684,0.846 0.585,-0.253 0.738,-1.169 0.323,-2.099 -0.715,0.184 -1.976,0.777 -1.976,0.777 -0.623,-0.231 -0.354,0.069 -0.27,0.369 -1.976,0.361 -3.914,0.884 -5.482,2.2 -0.277,0.199 -0.408,0.076 -0.5,-0.324 -0.185,-0.284 -0.277,0.208 -0.3,0.33 0,0 -1.184,0.293 -1.707,0.731 0.369,0.6 0.884,1.554 1.707,1.238 m 46.963,19.12 c -0.554,0.092 -0.677,0.323 -0.577,0.861 -0.615,1.33 -0.63,2.938 -1.684,4.06 2.26,-0.638 1.76,-1.491 2.307,-3.206 -0.108,2.33 0.015,2.292 0.854,3.891 -1.738,1.223 -4.584,0.192 -5.537,2.569 0.261,0.307 0.6,0 0.953,0.084 -0.223,0.277 -0.315,0.592 -0.676,0.83 0.076,-0.222 0.123,-0.368 0.176,-0.507 -0.653,-0.223 -1.192,1.269 -1.676,1.753 4.652,-0.938 -0.561,-2.307 8.605,-3.375 1.623,-0.762 -1.53,-1.954 1.653,-3.969 0.277,-1.1 0.454,-2.23 1.046,-3.222 0.146,-0.33 -0.077,-0.792 -0.377,-1.022 -1.391,0.984 -2.053,-0.6 -5.067,1.253 M 45.01,54.576 c 0.438,0.077 0.915,0.161 1.33,-0.03 -0.646,-1.108 -1.292,-2.2 -1.961,-3.338 -1.161,1.43 -3.176,0.553 -4.437,-0.323 -1.03,-0.762 1.192,-1.938 0.477,-4.476 0.992,1.6 -0.808,2.984 1.976,3.876 -0.807,-1.192 -0.7,-2.738 -1,-4.107 -0.038,-0.238 -0.154,-0.469 0.039,-0.707 0.092,-0.33 0.115,-0.769 -0.33,-0.823 -3.108,-1.784 -2.485,-0.915 -5.507,-1.33 -0.746,1.315 0.83,2.484 0.584,3.768 -0.223,0.623 0.731,0.6 0.723,1.215 0.208,0.953 0.1,2.292 -0.984,2.66 -0.546,0.324 -0.108,1.016 0.361,1.177 -0.96,1.746 -0.223,2.023 1.254,2.892 0.008,-0.677 0.015,-1.261 0.292,-1.83 2.038,1.353 -0.992,1.576 3.038,3.214 -0.408,-0.677 -0.4,-1.407 -0.462,-2.084 0.385,0.085 0.754,0.177 1.138,0.261 0.431,1.869 1.438,2.03 3.222,1.869 -0.638,-0.638 -0.815,-1.461 -1.284,-2.115 0.539,0.185 1.07,-0.184 1.53,0.231 m 41.827,-6.06 c 0.015,0.03 0.03,0.062 0.053,0.092 l 0.016,-0.038 z m 0.622,-0.277 c 0.093,0.046 0.177,0.108 0.216,0.216 0.07822,0.008 0.15369,-0.03134 0.192,-0.1 0.03,-0.1 1.1,-1.5 0.977,-1.592 -0.116,-0.039 -0.231,-0.123 -0.262,-0.246 -0.1,-0.1 -0.246,-0.146 -0.354,0.008 -0.038,0.177 -1.222,1.515 -0.915,1.684 0.046,0 0.1,0.008 0.146,0.03 m 12.858,-10.235 c -0.746,0.223 -1.053,0.846 -1.33,1.553 -1.877,-2.93 -5.445,-4.944 -5.983,-8.528 0.415,-2.86 4.206,-2.207 3.437,0.777 1.969,-1.061 1.015,-3.022 -0.838,-3.368 2.015,0.153 3.122,1.86 4.491,-0.97 -1.192,0.431 -2.999,0.124 -3.63,0.031 2.507,-0.338 3.876,-0.315 3.8,-3.43 -0.854,1.87 -3.223,1.9 -4.938,2.508 0.108,-0.83 -0.146,-1.338 -0.815,-1.6 0.677,4.545 -7.944,3.06 1.53,12.873 -1.16,-0.638 -2.514,-0.423 -3.637,-1.138 0.877,2.369 2.36,1.961 4.299,2.784 -2.084,-0.016 -2.73,2.015 -1.184,2.984 -0.408,-1.561 1.745,-2.646 2.822,-1.415 2.46,3.16 -2.038,7.551 -6.037,-0.37 0.03,0.439 -0.277,0.831 -0.7,0.693 l -0.446,1.253 c 0.908,0.346 -0.492,2.107 -0.592,2.615 -0.154,0.338 -0.515,0.438 -0.777,0.253 l -0.446,0.923 c 0.554,0.508 -0.93,1.946 -1.1,2.392 -0.176,0.261 -0.484,0.346 -0.699,0.207 l -0.161,0.331 c 0.03,0.046 0.053,0.07 0.061,0.07 1.007,1.2 1.469,2.114 1.2,3.383 0.822,-0.7 1.184,-2.645 0.53,-3.707 0.739,0.77 1.823,1.323 2.246,2.307 0.423,1.8 0.092,3.584 -1.123,4.999 -0.515,0.523 -0.377,0.8 -0.446,1.438 -0.346,1.007 -1.553,1.092 -2.015,1.946 -0.323,0.753 -0.846,1.368 -1.076,2.16 1.376,-0.215 1.138,-2.137 2.437,-2.522 -0.53,0.8 -1.038,1.538 -1.4,2.469 1.085,-0.285 3.138,-0.577 2.792,-2.107 -0.254,-0.708 0.43,-1.177 0.4,-1.854 0.854,-0.307 0.661,-0.653 1.069,-1.322 0.192,0.407 0.2,0.746 0.177,1.184 -0.108,-0.215 -0.17,-0.354 -0.246,-0.515 -0.608,0.83 -0.1,1.63 -0.192,2.514 2.999,-2.684 -0.985,-2.668 2.13,-8.62 0.715,-1.184 -2.03,-1.054 -2.238,-3.73 -0.192,-1.161 0.823,-2.107 1.038,-3.214 1.2,2.138 5.39,2.06 4.814,4.783 0.846,-0.638 0.807,-1.8 0.477,-2.676 4.322,-1.554 0.915,-5.53 2.3,-8.344 m -10.198,6.852 c 0.023,-0.17 0.923,-1.654 0.685,-1.784 -0.162,0.03 -0.354,-0.054 -0.416,-0.208 -0.223,-0.092 -0.792,1.53 -0.892,1.63 0.285,-0.176 0.654,0.116 0.554,0.446 0.03118,-0.0204 0.05556,-0.04965 0.07,-0.084 m 0.899,-4.283 c -0.008,0.077 0.015,0.138 0.061,0.176 0.162,-0.138 0.416,-0.077 0.539,0.085 0.184,-0.054 0.123,-0.63 0.161,-0.761 -0.211388,-0.22957 -0.434696,-0.447872 -0.669,-0.654 z M 67.634,68.472 c 2.906,-0.577 0.338,-4.045 -3.246,-2.63 -0.315,1.376 -0.6,2.668 -1.753,3.699 2.3,0.107 4.53,-0.039 6.675,-0.954 1.069,-0.646 1.069,-2.96 2.222,-4.206 -1.315,-0.27 -0.7,4.23 -3.898,4.09 m -10.89,-2.575 c -3.568,-1.415 -6.16,2.038 -3.252,2.622 -3.192,0.138 -2.576,-4.353 -3.891,-4.091 1.153,1.246 1.153,3.568 2.222,4.206 2.145,0.915 4.376,1.062 6.675,0.962 -1.154,-1.03 -1.438,-2.33 -1.753,-3.7 m 18.986,-35.52 c -0.103443,-0.108594 -0.119144,-0.27387 -0.038,-0.4 -0.154,-0.03 -0.408,1.393 -0.462,1.47 0.1,0.107 0.193,0.2 0.277,0.3 0.139,0.038 0.362,0.115 0.408,-0.078 l 0.323,-1.253 c -0.146,0.13 -0.392,0.146 -0.508,-0.038 m 15.226,6.136 c -0.280084,-0.02918 -0.496561,0.241023 -0.407,0.508 -0.023,-0.008 -0.046,-0.016 -0.077,-0.031 l -1.261,-0.861 c -0.085,-0.054 -0.108,-0.17 -0.062,-0.262 0.239,-0.008 0.492,-0.13 0.462,-0.423 0.1,0.123 1.453,0.854 1.345,1.07 M 86.32,32.129 c -0.077,0.092 -0.23,0.292 -0.23,0.292 -1.4,-1.6 -6.114,-3.43 -8.152,-3.13 0,0 0.023,-0.238 0.031,-0.361 l -0.015,0.008 0.776,-0.492 -0.66,-0.554 c 0.007,-0.077 -0.424,-2.76 -0.424,-2.76 l 1.17,-0.031 c 0,0 -0.416,0.484 -0.44,0.876 0.07,0.046 0.124,0.108 0.162,0.193 0.239,-0.1 0.485,-0.585 0.485,-0.585 l 0.115,1.584 c 0,0 -0.323,-0.453 -0.561,-0.538 -0.01402,0.05802 -0.04338,0.111213 -0.085,0.154 0.338,1.053 1.876,1.122 1.876,0.215 -0.053,-0.469 -0.569,-0.392 -0.538,0.108 -0.846,-0.67 0.292,-1.738 0.761,-0.662 -0.061,-0.622 -0.008,-0.976 0.477,-1.276 0.316,0.4 0.27,0.777 -0.077,1.376 1.038,-0.96 1.43,0.67 0.462,0.908 0.477,-0.854 -0.892,-0.585 -0.392,0.315 0.46,0.7 1.568,0.592 1.96,-0.169 -0.02492,-0.04662 -0.04534,-0.09551 -0.061,-0.146 -0.385,-0.07 -0.961,0.261 -0.961,0.261 l 0.538,-1.468 c 0,0 0.223,0.63 0.546,0.822 0.06279,-0.05301 0.136052,-0.09219 0.215,-0.115 0.062,-0.384 -0.33,-0.984 -0.33,-0.984 l 1.8,0.692 c 0,0 -0.708,0.177 -0.939,0.5 0.04696,0.06518 0.07374,0.142728 0.077,0.223 0.369,0.077 0.976,-0.231 0.976,-0.231 l -0.638,1.423 c 0,0 -0.192,-0.623 -0.523,-0.83 -0.04482,0.03014 -0.09409,0.05308 -0.146,0.068 -0.254,0.823 0.492,1.63 1.307,1.423 0.992,-0.3 0.208,-1.423 -0.061,-0.484 -0.538,-0.823 0.907,-1.738 0.977,-0.354 0.176,-0.661 0.407,-0.97 0.922,-1.046 0.131,0.538 -0.076,0.83 -0.561,1.238 1.115,-0.469 1.161,1.077 0.092,0.992 0.37,-0.346 0.046,-0.738 -0.323,-0.438 -0.638,0.669 0.562,1.63 1.5,1.153 0,-0.061 0.015,-0.115 0.038,-0.169 -0.23,-0.161 -0.784,-0.184 -0.784,-0.184 l 1.153,-0.854 c 0,0 -0.138,0.523 -0.03,0.792 0.08485,-0.0155 0.17233,-0.0075 0.253,0.023 0.246,-0.246 0.262,-0.915 0.262,-0.915 l 0.861,1.069 c 0,0 -2.16,0.992 -2.538,1.284 l -0.6,-0.061 0.293,0.846 z m -6.344,-7.79 c 0.362,0.13 0.7,0.315 1.061,-0.038 -0.346,-0.008 -0.453,-0.247 -0.553,-0.485 -0.17,-1.184 1.768,-0.761 2.491,-0.677 1.815,1.1 4.914,0.4 3.838,-2.23 0.838,0.515 0.553,1.961 -0.085,2.523 -1.684,0.907 -3.276,0.223 -4.952,1.999 -0.254,-0.808 -1.223,-0.769 -1.57,0.13 -0.322,0.024 -0.407,0.016 -0.707,0.04 -0.061,-0.478 0.323,-0.816 0.477,-1.262 m 4.491,-4.56 c -0.538,0.361 -1.015,0.907 -1.561,0.169 -0.13,0.03 -0.238,0.046 -0.37,0.077 0.816,-1.261 0.747,-1.046 1.931,-0.246 m 1.83,-2.876 c 0.4,0.438 0.577,0.922 0.577,1.468 -0.384,-0.138 -0.554,-0.553 -0.577,-1.468 m -16.74,7.128 2.03,-0.723 0.745,1.5 -1.415,0.9 z m -1.308,-0.353 c -0.262,1.545 -3.745,0.876 -3.407,-0.662 0.262,-1.545 3.745,-0.876 3.407,0.662 m -6.929,0.676 -2.168,-1.538 2.176,-1.538 2.176,1.538 z m -4.983,0.185 c -2.207,0.446 -2.668,-1.977 -0.454,-2.384 2.207,-0.446 2.669,1.984 0.454,2.384 m -4.599,1.169 -1.415,-0.9 0.746,-1.5 2.03,0.723 z M 78.53,20.824 c 0.177,-0.015 0.316,-0.03 0.516,-0.053 -0.339,-0.246 -0.008,-0.585 0.269,-0.339 0.669,0.516 -0.67,1.362 -0.785,0.393 m 13.473,17.417 -0.184,-0.023 -0.5,-1.353 c 0.23,-0.3 0.361,-0.777 -0.008,-1.023 -0.485,-0.192 -1.861,-1.76 -2.269,-0.746 -0.169,0.062 -1.253,0.123 -1.338,0.33 -0.537192,-0.836175 -0.971024,-1.734395 -1.292,-2.675 0.216,-1.13 3.207,-2.546 3.207,-2.546 0,0 -0.846,-1.222 -1.184,-1.914 -0.154,0.338 -0.292,0.192 -0.623,0.346 1.669,-2.953 2.022,-6.844 -0.185,-9.636 -0.223,-0.492 -0.123,-1.13 -0.338,-1.6 -0.384,-0.507 -0.646,-1.499 -1.323,-1.607 0,0.885 -0.092,1.738 0.331,2.553 0.454,0.57 -0.615,1.054 -0.954,0.6 0.646,-0.069 0.746,-0.2 0.531,-0.561 -2.753,-0.615 -4.283,1.315 -6.906,1.622 -0.23,-0.007 -0.438,0.077 -0.569,0.285 -1.615,2.184 2.015,0.692 2.33,2.138 -0.607,0.5 -0.692,0.169 -1.26,0.023 -0.816,0.03 -1.608,0.292 -0.593,0.977 -0.615,0.976 -0.592,1.322 -1.853,1.407 0.554,0.776 0.43,1.892 0.577,2.768 -0.9,0.17 -1.515,0.608 -1.53,1.569 -0.408,0.092 -0.847,-0.123 -1.139,0.315 -0.561,-0.469 -1.215,-0.553 -1.892,-0.569 -0.63216,-0.472212 -1.300564,-0.893852 -1.999,-1.261 0.17,-0.638 0.338,-1.238 0.484,-1.8 0.254,-0.16 1.162,-0.738 1.4,-0.891 l -0.73,-1.47 c 1.622,-5.575 2.145,-5.882 2.968,-6.005 L 75.2,17.341 72.209,16.38 72.155,16.572 c 0.754,0.554 1,1.461 0.661,2.53 -0.807,-0.346 -1.26,-1.1 -1.176,-1.776 -0.06621,-0.02212 -0.13289,-0.04279 -0.2,-0.062 l -1,3.33 c 0,0 0.146,0.046 0.162,0.046 0.392,-0.569 1.076,-0.884 1.876,-0.753 -0.93,2.945 -5.098,2.03 -4.353,-0.477 0.531,-1.03 1.538,-0.37 1.054,0.715 2.338,-0.823 0.961,-4.191 -1.038,-2.184 0.661,-1.353 1.038,-2.415 0.208,-3.73 -1.085,0.692 -1.354,1.946 -1.154,3.622 -1.315,-3.022 -3.622,0.085 -1.746,1.661 -0.346,-2.237 2.423,-0.76 0.546,1.046 -1.776,1.261 -3.975,-0.184 -4.037,-2.414 1.03,0.092 1.815,0.7 1.923,1.46 l 0.192,0.009 0.123,-3.8 -0.23,-0.015 c -0.162,0.769 -1,1.423 -2.054,1.446 0.07,-1.177 0.738,-2.092 1.607,-2.238 v -0.215 h -4.383 v 0.215 c 0.869,0.146 1.538,1.061 1.607,2.238 -1.053,-0.023 -1.892,-0.677 -2.053,-1.446 -0.015,0 -0.23,0.016 -0.23,0.016 l 0.122,3.799 0.192,-0.008 c 0.108,-0.762 0.892,-1.37 1.923,-1.461 -0.062,2.23 -2.26,3.675 -4.037,2.414 -1.877,-1.807 0.892,-3.283 0.546,-1.046 1.876,-1.576 -0.43,-4.683 -1.746,-1.66 0.2,-1.677 -0.07,-2.93 -1.146,-3.623 -0.83,1.315 -0.461,2.377 0.2,3.73 -2,-2.007 -3.376,1.369 -1.038,2.184 -0.484,-1.084 0.523,-1.746 1.054,-0.715 0.746,2.507 -3.422,3.422 -4.353,0.477 0.8,-0.131 1.484,0.184 1.876,0.753 0.016,0 0.162,-0.046 0.162,-0.046 l -1,-3.33 c 0,0 -0.184,0.054 -0.2,0.062 0.085,0.676 -0.369,1.43 -1.169,1.776 -0.346,-1.069 -0.1,-1.976 0.654,-2.53 l -0.046,-0.192 -3,0.96 0.047,0.155 c 0.815,0.123 1.338,0.43 2.96,6.006 -0.13,0.269 -0.607,1.222 -0.73,1.468 0.23,0.146 1.153,0.73 1.4,0.892 0.138,0.508 0.284,1.054 0.438,1.63 0.008,0 0.015,-0.007 0.015,-0.007 0,0.015 -0.007,0.023 -0.015,0.008 -4.03,1.884 -3.115,3.168 -6.221,2.799 -0.277,0.638 -0.539,1.276 -1.17,1.715 -0.115,-0.985 -0.553,-1.754 -1.13,-2.446 -0.284,-0.33 -0.676,0.039 -1.107,0.07 -0.838,1.83 -1.423,0.176 -2.907,1.138 0.062,0.853 0.192,1.707 0.662,2.491 -1.108,-0.077 -2.015,-0.377 -2.746,-0.892 -3.299,3.684 -6.736,7.221 -9.558,11.274 -1.508,1.992 -5.537,0.83 -4.468,-1.907 0.484,-2.007 3.376,-1.577 3.191,0.407 1.43,-1.592 0.508,-3.168 -1.669,-2.814 2,-0.87 3.207,0.769 5.014,-1.484 -1.384,0.038 -2.553,-0.4 -3.93,-0.085 1.738,-1.046 4.13,0.507 5.622,-2.369 -1.3,0.139 -2.469,0.677 -3.807,0.877 8.044,-7.667 0.3,-8.044 1.285,-11.366 -0.631,0.539 -0.985,1.07 -0.7,1.784 -1.8,-0.753 -4.468,-0.53 -5.199,-2.714 -0.176,3.114 1.192,2.891 3.545,3.53 -1.084,-0.131 -2.16,-0.139 -3.176,-0.508 0.208,1.392 1.27,1.692 2.515,1.561 -1.223,0.677 -0.938,2.415 0.3,3.014 -0.792,-4.514 5.96,-2.968 2.876,1.177 -1.43,2.13 -3.499,3.722 -5.244,5.583 -0.323,-0.57 -0.67,-1.138 -1.43,-1.054 1.33,1.53 -0.17,3.192 -0.524,4.776 -0.507,1.953 1.215,3.614 3.06,3.837 -0.737,0.877 -0.791,1.654 -0.222,2.369 0.554,-2.869 4.714,-2.223 5.106,-5.33 0.07,-0.36 0.246,-0.645 0.654,-0.815 -1.877,2.123 2.63,6.606 -1.608,7.13 -0.6,0.015 -0.753,0.653 -0.415,1.099 -1.745,-0.085 -2.23,0.577 -2.499,2.23 0.769,-0.2 1.492,-0.385 2.215,-0.577 -0.762,2 -2.492,-0.115 -2.207,3.438 0.707,-0.339 1.368,-0.7 2.014,-1.1 0.631,1.992 -3.168,1.13 -0.315,4.314 0.177,-0.592 0.938,-1.815 1.33,-2.084 -0.353,1 -0.269,2.16 0.854,2.607 0.054,-0.262 0.1,-0.5 0.146,-0.738 h 0.092 c 0.162,0.661 0.185,1.584 0.823,1.968 0.216,0.085 0.331,0.2 0.4,0.423 0.116,0.37 0.462,0.47 0.792,0.515 0.423,0.085 0.53,-0.392 0.838,-0.584 0.085,0.53 0.708,0.608 1.008,1.054 0.238,-2.584 -3.2,-1.646 -2.407,-3.353 0.3,1.038 1.276,0.815 1.953,1.238 0.27,0.438 0.908,0.792 1.238,0.192 0.323,0.239 0.608,0.454 0.892,0.67 -0.669,-3.077 -2.26,-1.177 -3.268,-2.785 0.7,0.031 1.446,1.07 2.2,0.354 0.407,0.423 0.722,0.908 1.03,1.407 0.123,-0.984 -0.246,-1.738 -1.023,-2.284 -0.869,-0.53 -2.053,0.423 -2.8,-0.645 -1.014,-1.262 -0.991,-3.023 -0.46,-4.484 0.492,-1.115 1.845,-1.538 2.468,-2.599 -0.17,0.938 -0.085,2.568 0.977,2.876 -0.262,-1.746 0.976,-3.307 1.23,-4.99 0.323,-0.424 0.338,-0.754 0.046,-1.216 -0.53,-0.861 -0.677,-1.907 -1.253,-2.753 -0.908,-1.269 -2.015,-1.3 -0.177,-2.637 -1.115,1.738 -0.208,1.107 0.761,2.737 0.177,-0.546 1,-1.269 -0.03,-1.269 -1.623,-0.792 2.114,-2.86 2.96,-2.914 0.83,-0.07 2,0.023 2.63,-0.792 -0.4,-0.754 -0.777,-0.862 -0.108,-1.638 -0.453,-0.27 -0.853,-0.585 -0.93,-1.177 -0.43,0.146 -0.815,0.285 -1.261,0.439 0.407,-0.462 1.607,-1.4 1.738,-0.362 0.03,0.577 0.607,0.685 1.053,0.83 -0.33,0.477 -0.876,0.954 -0.377,1.516 0.346,0.361 0.562,1.045 1.1,1.138 0.138,-0.539 0.277,-1.062 0.423,-1.592 1.184,1.238 -1.184,1.93 2.06,3.045 -0.122,-0.669 -0.222,-1.315 -0.138,-2.015 1.57,1.308 -0.676,2.13 2.93,2.561 -0.4,-0.477 -0.492,-1.007 -0.646,-1.538 0.608,0.092 1.092,0.677 1.477,1.107 0.377,0.562 0.646,0.87 1.492,0.316 0.038,0.1 0.054,0.238 0.123,0.292 0.377,0.292 0.23,0.638 0.223,1.03 h 0.1 c 0.5,-0.507 0.538,-1.092 0.384,-1.722 -0.353,-1.192 -1.807,-0.246 -2.322,-1.461 0.692,0.469 1.376,0.738 2.13,0.346 0.423,0.4 0.6,0.692 0.807,1.253 0.347,-1.284 -0.053,-2.591 -1.407,-2.207 -0.423,0.146 -0.6,0.116 -1.023,-0.254 0.631,0.216 1.046,-0.107 1.446,-0.392 0.092,0.108 0.146,0.239 0.2,0.246 0.385,0.023 0.63,0.254 0.87,0.531 0.122,-1.1 -0.97,-1.992 -2.07,-1.707 -0.276,1.346 -1.407,0.584 -2.307,0.407 -1.391,-0.815 -2.122,-2.384 -3.352,-3.399 0.115,-1.515 -1.138,-2.714 -2.653,-2.63 1.36,-0.592 2.983,0.577 3.091,2 0.046,0.584 0.4,0.953 0.777,1.384 4.606,-9.266 19.478,-11.689 28.022,-5.806 0.73,0.661 1.523,1.207 2.276,1.907 0.292,-0.884 0.123,-1.938 1.438,-1.4 l 0.246,-0.169 c -0.269,-0.745 0.293,-1.591 1.077,-1.645 v 0.584 c -0.346,0.054 -0.615,0.392 -0.554,0.746 0.262,-0.054 0.5,0.292 0.354,0.515 0.254,0.146 0.6,0.085 0.792,-0.115 0.215,0.008 0.438,0.03 0.654,0.054 -0.3,0.715 -1.338,0.953 -1.923,0.43 l -0.008,0.008 c 0.116,0.154 -0.392,1.723 -0.415,1.915 -0.05869,0.225724 -0.26698,0.37986 -0.5,0.37 l 0.254,0.422 c 0.377,-0.207 0.9,-0.2 0.846,-0.723 0.077,-0.307 -0.123,-1.691 0.307,-1.56 0.177,0.522 -0.153,1.13 0.239,1.645 1.23,-0.3 0.692,-1.423 2.184,-1.707 0.592,-0.054 1.845,-0.346 2.168,0.246 -1.307,-0.346 -2.991,0.016 -3.283,1.5 -1.354,0.322 -2.5,1.291 -3.945,1.291 -1.146,0.062 -1.454,1.446 -1.507,2.392 -0.193,1.084 -0.247,2.207 -0.731,3.214 -0.238,0.385 -0.038,0.83 0.092,1.185 0.439,0.238 0.754,1.76 0.815,2.307 0,0.992 1.708,1.33 2.4,1.945 0.192,-1.246 -2.169,-0.892 -1.838,-2.637 0.423,1.16 1.338,1.391 2.345,1.96 -0.315,-1.168 -0.407,-3.106 -2.038,-2.868 -0.63,-0.869 0.285,-0.923 -0.008,-1.96 0.47,0.145 0.692,0.307 0.816,0.599 -0.147,-0.046 -0.277,-0.085 -0.477,-0.154 0.054,0.738 0.7,0.915 1.192,1.423 -0.085,-1.207 -0.193,-1.976 -1.315,-2.56 -0.646,-0.585 0.092,-1.931 0.053,-2.739 -0.023,-0.238 1.5,-1 1.738,-0.93 1.13,0.146 2.315,-0.03 3.415,0.254 1.092,0.338 0.154,-2.03 1.915,-0.785 -1.277,-0.369 -0.5,1.023 -1.423,1.092 -0.638,0.008 -1.192,-0.053 -1.861,-0.077 2.315,5.16 7.467,3.653 8.874,8.26 1.192,-1.046 0.385,-1.031 0.054,-2.123 2.668,1.784 -2.492,3.845 -0.554,6.967 -0.123,-0.346 1.092,-1.807 1.23,-2.107 0.224,-0.33 0.593,-0.354 0.839,-0.115 l 0.384,-0.8 c -0.715,-0.392 0.585,-2.084 0.677,-2.56 0.139,-0.293 0.446,-0.431 0.685,-0.308 l 0.361,-1 c -0.684,-0.185 -0.17,-1.838 -0.223,-2.3 -0.961,-0.86 -1.738,-1.945 -2.484,-2.945 l 0.462,-0.077 c -0.054,0.223 0.03,0.47 0.215,0.6 0.33,0.13 1.592,1.346 1.984,1.061 l 0.2,0.53 c -0.323,0.086 -0.377,0.532 -0.377,0.831 0.17,0.147 0.346,0.277 0.515,0.431 0.023,-0.108 0.008,-0.6 0.1,-0.677 0.154,0.2 0.423,0.2 0.585,0.046 0.154,0.077 -0.031,1.146 -0.016,1.277 0.185,0.2 0.362,0.408 0.523,0.63 -0.069,-0.492 0.539,-2.36 -0.3,-2.453 M 308.76109,7.9967875 h 4.01667 v 2.9255815 h -4.01667 v 12.530654 c 0,1.558121 0.43099,1.79284 2.4946,1.79284 h 1.52207 v 2.925582 h -2.53145 c -3.43827,0 -4.80654,-0.701755 -4.80654,-4.410803 V 10.922369 H 302.0095 V 7.9967875 h 3.43107 V 1.9405452 h 3.32052 z m -25.22633,0 h 3.12265 v 3.1963505 h 0.0737 c 1.41072,-2.4945954 3.63455,-3.6649883 6.56093,-3.6649883 5.31043,0 6.94946,3.0433423 6.94946,7.3740363 v 13.269259 h -3.32052 V 14.514458 c 0,-2.501805 -1.55892,-4.059926 -4.09678,-4.059926 -4.02307,0 -5.97613,2.691664 -5.97613,6.320603 v 11.39631 h -3.31411 z m -6.24049,8.1558995 c -0.19787,-3.160301 -2.50181,-5.698155 -5.81592,-5.698155 -3.43748,0 -5.58119,2.574705 -5.77826,5.698155 z m 3.19635,5.618046 c -0.89322,4.490912 -4.05913,6.869349 -8.62454,6.869349 -6.43756,0 -9.48651,-4.485304 -9.67717,-10.614446 0,-6.086683 3.97902,-10.4974863 9.48651,-10.4974863 7.14012,0 9.32709,6.6714793 9.13003,11.5509203 h -15.10536 c -0.11696,3.511179 1.87215,6.63463 6.28295,6.63463 2.77257,0 4.64552,-1.287352 5.23112,-3.942967 z M 230.93037,7.9967875 h 3.12425 v 2.9624315 h 0.0801 c 1.52127,-2.3039353 3.66499,-3.4310693 6.51687,-3.4310693 2.49539,0 4.71842,0.9364745 5.53794,3.4310693 1.36826,-2.1869761 3.70904,-3.4310693 6.32701,-3.4310693 4.02307,0 6.71473,1.6758808 6.71473,5.8527653 v 14.79053 h -3.32051 V 14.939036 c 0,-2.494595 -0.66491,-4.484504 -3.90532,-4.484504 -3.24041,0 -5.26717,2.026759 -5.26717,5.15021 v 12.566703 h -3.31411 V 14.939036 c 0,-2.611555 -0.81951,-4.484504 -3.78916,-4.484504 -3.90531,0 -5.38332,3.591288 -5.38332,5.15021 v 12.566703 h -3.32132 z m -6.49284,0 h 4.02308 v 2.9255815 h -4.02308 v 12.530654 c 0,1.558121 0.43099,1.79284 2.50101,1.79284 h 1.52207 v 2.925582 h -2.53866 c -3.43107,0 -4.79853,-0.701755 -4.79853,-4.410803 V 10.922369 h -3.43187 V 7.9967875 h 3.43187 V 1.9405452 h 3.31411 z m -18.19196,0 h 3.12425 v 4.2505845 h 0.0737 c 1.60138,-3.2772598 3.82521,-4.8425902 7.4165,-4.7184212 v 3.5103772 c -5.34728,0 -7.29954,3.006492 -7.29954,8.156701 v 8.975416 h -3.31491 z m -7.63839,9.7572795 c -2.57551,1.909799 -10.0665,0.03765 -10.0665,4.9964 0,2.180568 1.87295,2.963233 3.8997,2.963233 4.37396,0 6.1668,-2.691664 6.1668,-4.564613 z m 5.39053,10.343677 c -0.58559,0.350878 -1.40511,0.542338 -2.38404,0.542338 -1.71914,0 -2.80942,-0.937275 -2.80942,-3.117042 -1.8361,2.180568 -4.29385,3.116241 -7.10327,3.116241 -3.6714,0 -6.67789,-1.59497 -6.67789,-5.654896 0,-4.571021 3.40063,-5.581196 6.8325,-6.20925 3.63454,-0.739407 6.79485,-0.424578 6.79485,-2.964034 0,-2.931991 -2.4217,-3.356569 -4.49092,-3.356569 -2.80942,0 -4.87864,0.856366 -5.03325,3.825206 h -3.32052 c 0.19707,-4.9955984 4.02308,-6.7515883 8.55084,-6.7515883 3.62894,0 7.57031,0.8195154 7.57031,5.5379373 v 10.386936 c 0,1.558121 0,2.260677 1.05423,2.260677 0.31403,0 0.6649,-0.08011 1.01658,-0.19066 z M 173.45454,10.454532 c -4.49091,0 -6.16679,3.862858 -6.16679,7.607955 0,3.942966 1.79284,7.651213 6.36386,7.651213 4.52777,0 6.04904,-3.862858 6.04904,-7.805023 0,-3.789157 -1.95306,-7.454145 -6.24611,-7.454145 m -9.37035,-2.4577445 h 3.32052 v 2.7285135 h 0.0737 c 1.0975,-2.2238266 3.63455,-3.1963502 6.44397,-3.1963502 6.20364,0 9.28944,4.9154902 9.28944,10.6136452 0,5.735806 -3.04254,10.497486 -9.21574,10.497486 -2.02676,0 -5.0701,-0.777057 -6.51767,-3.160301 h -0.0737 v 10.422986 h -3.32052 z m -6.29657,8.1558995 c -0.19066,-3.160301 -2.49459,-5.698155 -5.81511,-5.698155 -3.43107,0 -5.5812,2.574705 -5.77186,5.698155 z m 3.20436,5.618046 c -0.89962,4.490912 -4.05992,6.869349 -8.62453,6.869349 -6.44397,0 -9.48732,-4.485304 -9.68519,-10.614446 0,-6.086683 3.98623,-10.4974863 9.48812,-10.4974863 7.13931,0 9.32629,6.6714793 9.13563,11.5509203 h -15.10536 c -0.11696,3.511179 1.87295,6.63463 6.28376,6.63463 2.76616,0 4.64472,-1.287352 5.23031,-3.942967 z m -39.62993,3.277261 h 6.16679 c 2.53786,0 9.36955,-0.695347 9.36955,-10.965324 0,-6.6346293 -2.45774,-10.6569035 -9.29024,-10.6569035 h -6.2461 z M 117.653,0.3079232 h 9.56742 c 8.58128,0 13.38622,4.3306939 13.38622,13.2700598 0,9.326293 -4.10238,14.593462 -13.38622,14.593462 H 117.653 Z m 461.7324,7.6949686 h 4.01667 v 2.9255812 h -4.01667 v 12.530662 c 0,1.558121 0.42458,1.79284 2.4954,1.79284 h 1.52207 v 2.925582 h -2.53945 c -3.43027,0 -4.79853,-0.701755 -4.79853,-4.410803 V 10.928473 h -3.43107 V 8.0028918 h 3.43107 V 1.9466495 h 3.32051 z m -25.22633,0 h 3.12345 v 3.1963502 h 0.0737 c 1.40431,-2.4945951 3.63455,-3.6705956 6.56093,-3.6705956 5.30322,0 6.94866,3.0489496 6.94866,7.3796516 v 13.269259 h -3.32052 V 14.52057 c 0,-2.501012 -1.55812,-4.059933 -4.09677,-4.059933 -4.02228,0 -5.97534,2.691671 -5.97534,6.32061 v 11.39631 h -3.31411 z M 547.91858,16.1588 c -0.19707,-3.160301 -2.501,-5.698163 -5.81592,-5.698163 -3.43667,0 -5.58119,2.574712 -5.77826,5.698163 z m 3.19635,5.618046 c -0.89242,4.491713 -4.05912,6.869349 -8.62374,6.869349 -6.43756,0 -9.48731,-4.484504 -9.67797,-10.614446 0,-6.086692 3.97982,-10.497495 9.4809,-10.497495 7.14573,0 9.33271,6.671488 9.13564,11.550928 H 536.3244 c -0.11696,3.511179 1.87295,6.63463 6.28375,6.63463 2.77177,0 4.64472,-1.287352 5.23032,-3.942966 z M 501.55548,8.0028918 h 3.12345 v 2.9632332 h 0.0737 c 1.52207,-2.304737 3.6714,-3.4374786 6.51767,-3.4374786 2.50101,0 4.72483,0.9420821 5.54355,3.4366776 1.36826,-2.1869768 3.70904,-3.4366776 6.32781,-3.4366776 4.01586,0 6.70833,1.6814884 6.70833,5.8583806 v 14.79053 h -3.31411 V 14.945148 c 0,-2.494595 -0.66491,-4.484511 -3.90612,-4.484511 -3.24041,0 -5.26717,2.026766 -5.26717,5.150217 v 12.566703 h -3.32052 V 14.945148 c 0,-2.611554 -0.81871,-4.484511 -3.78194,-4.484511 -3.90612,0 -5.39054,3.591295 -5.39054,5.150217 v 12.566703 h -3.31411 z m -20.7178,0 h 3.12426 v 3.1963502 h 0.0801 c 1.40351,-2.4945951 3.62813,-3.6705956 6.55371,-3.6705956 5.31123,0 6.94946,3.0489496 6.94946,7.3796516 V 28.177557 H 494.2303 V 14.52057 c 0,-2.501012 -1.56453,-4.059933 -4.10238,-4.059933 -4.01667,0 -5.96973,2.691671 -5.96973,6.32061 v 11.39631 h -3.32052 z M 468.05549,25.719812 c 3.47433,0 6.28295,-2.729314 6.28295,-7.607954 0,-4.87864 -2.80862,-7.651221 -6.28295,-7.651221 -3.47513,0 -6.28375,2.77178 -6.28375,7.65042 0,4.879441 2.80862,7.608755 6.28375,7.608755 m 0,-18.1847569 c 6.40071,0 9.80054,4.6383129 9.80054,10.5768029 0,5.889615 -3.40063,10.534337 -9.80054,10.534337 -6.40071,0 -9.79573,-4.644722 -9.79573,-10.534337 0,-5.93849 3.39502,-10.577604 9.79573,-10.577604 M 447.2696,8.0028918 h 3.12425 v 4.2505852 h 0.0737 c 1.60138,-3.2772605 3.82521,-4.8425909 7.4165,-4.7248306 v 3.5167866 c -5.34728,0 -7.29954,3.006499 -7.29954,8.156709 v 8.975415 h -3.31491 z m -7.32437,0 h 3.32052 V 28.183966 h -3.32052 z m 3.32052,-3.6289389 h -3.32052 V 0.31402751 h 3.32052 z M 430.3722,28.177557 h -3.54883 l -7.4966,-20.1746652 h 3.70825 l 5.6613,16.8172962 h 0.0737 l 5.5075,-16.8172962 h 3.46872 z M 401.2766,8.0028918 h 3.12345 v 3.1963502 h 0.0801 c 1.40432,-2.4945951 3.62894,-3.6705956 6.55452,-3.6705956 5.31043,0 6.94866,3.0489496 6.94866,7.3796516 v 13.269259 h -3.32052 V 14.52057 c 0,-2.501012 -1.55812,-4.059933 -4.09677,-4.059933 -4.01587,0 -5.96893,2.691671 -5.96893,6.32061 v 11.39631 H 401.2766 Z M 379.24662,0.30841988 h 19.23899 V 3.4318708 h -15.52994 v 8.8648652 h 14.4765 v 3.116249 h -14.4765 v 9.64753 h 15.64689 v 3.117042 h -19.35594 z m -23.7363,7.69447192 h 3.12425 v 4.2505852 h 0.0801 c 1.60138,-3.2772605 3.8252,-4.8425909 7.41649,-4.7248306 v 3.5167866 c -5.34728,0 -7.29953,3.006499 -7.29953,8.156709 v 8.975415 h -3.32052 z M 342.7842,25.719812 c 3.47433,0 6.28375,-2.729314 6.28375,-7.607954 0,-4.87864 -2.80942,-7.651221 -6.28375,-7.651221 -3.47433,0 -6.28375,2.77178 -6.28375,7.65042 0,4.879441 2.80942,7.608755 6.28375,7.608755 m 0,-18.1847569 c 6.40071,0 9.80134,4.6383129 9.80134,10.5768029 0,5.889615 -3.40063,10.534337 -9.80134,10.534337 -6.40071,0 -9.79493,-4.644722 -9.79493,-10.534337 0,-5.93849 3.39422,-10.577604 9.79493,-10.577604 m -17.60636,3.394219 h -3.39422 V 8.0028918 h 3.39422 V 4.9964001 c 0,-3.2772603 1.95305,-4.99639997081878 5.58119,-4.99639997081878 0.62886,0 1.52207,0.11695918081878 2.15013,0.30841975081878 V 3.1971514 c -0.5848,-0.1906595 -1.29376,-0.2707686 -1.87856,-0.2707686 -1.59577,0 -2.53144,0.5046869 -2.53144,2.2670855 v 2.8094235 h 3.8989 v 2.9255812 h -3.8997 v 17.249084 h -3.32052 z m 110.14438,52.403808 c 0.11696,2.964034 2.72931,3.899708 5.42739,3.899708 2.07001,0 4.87303,-0.467837 4.87303,-3.000083 0,-5.193468 -13.18915,-1.68229 -13.18915,-9.449661 0,-4.059925 3.97901,-5.735806 7.53425,-5.735806 4.52776,0 7.95883,1.405112 8.27286,6.320602 h -3.31411 c -0.19707,-2.574704 -2.53785,-3.394219 -4.68798,-3.394219 -1.98991,0 -4.29384,0.547945 -4.29384,2.574704 0,2.341587 3.51758,2.809423 6.59778,3.511979 3.32051,0.745014 6.59777,1.872949 6.59777,5.741414 0,4.835381 -4.49091,6.357453 -8.58768,6.357453 -4.52776,0 -8.35377,-1.829691 -8.55084,-6.825289 z M 420.53169,49.515077 h 3.12265 v 4.250585 h 0.0801 c 1.60218,-3.277261 3.82601,-4.836182 7.41809,-4.718422 v 3.511179 c -5.34807,0 -7.30033,3.00569 -7.30033,8.1559 v 8.975415 h -3.32052 z m -7.31876,0 h 3.31411 v 20.180264 h -3.31411 z m 3.31411,-3.628939 h -3.31411 v -4.059117 h 3.31411 z m -11.15678,13.386218 c -2.57471,1.9106 -10.07211,0.03765 -10.07211,4.9964 0,2.181369 1.87295,2.964034 3.90611,2.964034 4.36755,0 6.166,-2.692464 6.166,-4.566215 z m 5.38492,10.343677 c -0.58559,0.351679 -1.40511,0.542339 -2.37843,0.542339 -1.71834,0 -2.81503,-0.936475 -2.81503,-3.117043 -1.82969,2.180568 -4.28744,3.116241 -7.10327,3.116241 -3.66499,0 -6.67148,-1.594169 -6.67148,-5.654896 0,-4.57022 3.39422,-5.581195 6.8317,-6.20925 3.62894,-0.739407 6.78924,-0.424578 6.78924,-2.963233 0,-2.93199 -2.4217,-3.357369 -4.49092,-3.357369 -2.80942,0 -4.87864,0.856365 -5.03325,3.826007 h -3.31411 c 0.19066,-4.9964 4.01667,-6.75239 8.54443,-6.75239 3.63455,0 7.57031,0.819515 7.57031,5.538738 v 10.386135 c 0,1.558922 0,2.260677 1.05984,2.260677 0.30842,0 0.6593,-0.08011 1.01097,-0.19066 z M 383.75364,52.440658 h -3.40063 v -2.925581 h 3.40063 v -3.006492 c 0,-3.27726 1.94665,-4.996392 5.57558,-4.996392 0.62806,0 1.52768,0.116959 2.15013,0.30842 v 2.889524 c -0.5856,-0.19146 -1.28815,-0.271569 -1.87295,-0.271569 -1.60218,0 -2.53865,0.504687 -2.53865,2.267085 v 2.809424 h 3.8997 v 2.925581 h -3.8997 v 17.249076 h -3.31411 z m -11.71675,0 h -3.40063 v -2.925581 h 3.40063 v -3.006492 c 0,-3.27726 1.94665,-4.996392 5.57559,-4.996392 0.62805,0 1.52688,0.116959 2.14932,0.30842 v 2.889524 c -0.58479,-0.19146 -1.28735,-0.271569 -1.87295,-0.271569 -1.60138,0 -2.53785,0.504687 -2.53785,2.267085 v 2.809424 h 3.89971 v 2.925581 H 375.351 v 17.249076 h -3.31411 z m -20.14422,5.735807 h 9.44326 L 356.6912,45.177974 h -0.0801 z m 2.76537,-16.350245 h 4.10318 l 10.88522,27.863514 h -4.09678 l -3.04334,-8.389819 h -11.79045 l -3.12425,8.389819 h -3.8188 z m -26.65548,0 h 3.32052 v 27.869923 h -3.32052 z m -7.84267,17.446937 c -2.57471,1.909799 -10.07211,0.03685 -10.07211,4.995599 0,2.181369 1.87295,2.964034 3.90611,2.964034 4.37396,0 6.166,-2.692464 6.166,-4.566215 z m 5.38412,10.342876 c -0.58479,0.351679 -1.40431,0.542339 -2.37763,0.542339 -1.71834,0 -2.80943,-0.936475 -2.80943,-3.117043 -1.83529,2.180568 -4.29384,3.116241 -7.10246,3.116241 -3.6714,0 -6.67789,-1.594169 -6.67789,-5.654896 0,-4.57022 3.39422,-5.581195 6.8317,-6.20925 3.62894,-0.739407 6.79485,-0.424578 6.79485,-2.963233 0,-2.93199 -2.4209,-3.357369 -4.49092,-3.357369 -2.80862,0 -4.87864,0.856365 -5.03325,3.826007 h -3.32052 c 0.19787,-4.9964 4.01667,-6.75239 8.54523,-6.75239 3.63455,0 7.57672,0.819515 7.57672,5.538738 v 10.386135 c 0,1.558922 0,2.260677 1.05343,2.260677 0.30842,0 0.6649,-0.08011 1.01017,-0.19066 z M 295.36454,49.515077 h 3.12345 v 4.250585 h 0.0737 c 1.60218,-3.277261 3.82601,-4.836182 7.4173,-4.718422 v 3.511179 c -5.34728,0 -7.30034,3.00569 -7.30034,8.1559 v 8.975415 h -3.31411 z m -3.97341,20.174657 h -3.12345 v -3.19635 h -0.0801 c -1.40431,2.494595 -3.62894,3.664988 -6.55452,3.664988 -5.31042,0 -6.94865,-3.043342 -6.94865,-7.374036 V 49.515077 h 3.32051 v 13.656986 c 0,2.501805 1.55813,4.059926 4.09598,4.059926 4.01667,0 5.96972,-2.691663 5.96972,-6.320602 V 49.515878 h 3.32052 z M 260.94009,54.665286 c 3.43748,0 6.44397,-0.899624 6.44397,-4.958749 0,-2.766966 -1.48442,-4.762481 -4.95875,-4.762481 h -9.21013 v 9.72123 z M 249.50693,41.827021 h 13.11545 c 5.26717,0 8.46993,2.808615 8.46993,7.293919 0,3.399827 -1.44757,6.129142 -4.84179,7.065616 v 0.08011 c 3.24041,0.622448 3.86285,3.043342 4.17688,5.735807 0.19707,2.691663 0.0801,5.815114 1.63823,7.688063 h -4.13923 c -1.05344,-1.127935 -0.46864,-4.133626 -1.01018,-6.869349 -0.43178,-2.691663 -1.05984,-5.03325 -4.64552,-5.03325 h -9.05552 v 11.902599 h -3.70905 z m -23.26206,5.888807 c 0,-1.594971 -1.21365,-2.963233 -3.20356,-2.963233 -1.55812,0 -3.19635,0.937276 -3.19635,2.964034 0,1.681488 1.47801,3.319718 2.69166,4.84179 1.59578,-1.053434 3.70905,-2.421696 3.70905,-4.842591 m -4.80574,8.513987 c -2.61155,1.441963 -4.83618,3.006492 -4.83618,6.283752 0,2.808623 2.61155,4.718422 5.30402,4.718422 2.53865,0 4.57102,-1.287352 5.93287,-3.314111 z m 8.23681,9.991999 c -1.67588,2.611554 -4.83618,3.936558 -7.88593,3.936558 -7.52785,0 -8.70465,-5.340869 -8.70465,-7.607955 0,-4.330694 2.96964,-6.560929 6.51767,-8.433878 -1.55812,-2.180568 -3.08019,-3.745097 -3.08019,-6.55452 0,-3.006492 2.22383,-5.735799 6.28375,-5.735799 3.47433,0 6.75159,1.909792 6.75159,5.69254 0,3.363778 -2.53785,5.661305 -5.22952,7.225834 l 5.03886,6.129943 c 0.50469,-1.409919 0.81952,-2.851882 0.89322,-4.337103 h 3.1603 c -0.30762,3.357369 -0.70256,4.337103 -1.87295,6.869349 l 5.42739,6.282951 h -4.3307 z m -39.92634,1.010175 c 4.48531,0 6.16039,-3.862056 6.16039,-7.607954 0,-3.942967 -1.79204,-7.651213 -6.35665,-7.651213 -4.52857,0 -6.04984,3.862857 -6.04984,7.805022 0,3.789157 1.94665,7.454145 6.2469,7.454145 m 9.36315,2.457745 h -3.31411 V 66.96122 h -0.0801 c -1.09669,2.223827 -3.62894,3.19635 -6.44397,3.19635 -6.20284,0 -9.28304,-4.915489 -9.28304,-10.613644 0,-5.698155 3.04254,-10.497487 9.20934,-10.497487 2.02676,0 5.0701,0.782665 6.51767,3.160301 h 0.0801 V 41.827021 h 3.31411 z m -30.92448,-2.457745 c 3.47432,0 6.28295,-2.728514 6.28295,-7.607954 0,-4.87864 -2.80863,-7.651213 -6.28295,-7.651213 -3.47513,0 -6.28376,2.771772 -6.28376,7.651213 0,4.878639 2.80863,7.607954 6.28376,7.607954 m 0,-18.184749 c 6.40071,0 9.79493,4.638313 9.79493,10.576795 0,5.889615 -3.39502,10.534337 -9.79493,10.534337 -6.40071,0 -9.79574,-4.644722 -9.79574,-10.534337 0,-5.938482 3.39503,-10.577596 9.79574,-10.577596 m -21.59259,18.18555 c 3.46872,0 6.27734,-2.728514 6.27734,-7.607954 0,-4.87864 -2.80862,-7.651213 -6.27734,-7.651213 -3.47433,0 -6.28936,2.771772 -6.28936,7.651213 0,4.878639 2.81503,7.607954 6.28936,7.607954 m 0,-18.184749 c 6.40071,0 9.79493,4.638313 9.79493,10.576795 0,5.889615 -3.39422,10.534337 -9.79493,10.534337 -6.40712,0 -9.80134,-4.644722 -9.80134,-10.534337 0,-5.938482 3.39422,-10.577596 9.80134,-10.577596 M 117.65549,41.820613 H 135.958 v 3.123443 h -14.59346 v 8.864864 h 12.80142 v 3.116242 h -12.80142 v 12.764572 h -3.70905 z" /></svg>
